<svg width="289" height="200" viewBox="0 0 289 200" fill="none" xmlns="http://www.w3.org/2000/svg">
<g clip-path="url(#clip0_239_5)">
<mask id="mask0_239_5" style="mask-type:luminance" maskUnits="userSpaceOnUse" x="28" y="0" width="233" height="200">
<path d="M28.1912 0.0975342H260.472V199.714H28.1912V0.0975342Z" fill="white"/>
</mask>
<g mask="url(#mask0_239_5)">
<mask id="mask1_239_5" style="mask-type:luminance" maskUnits="userSpaceOnUse" x="28" y="0" width="233" height="200">
<path d="M260.472 99.9056L202.402 199.714H86.2613L28.1912 99.9056L86.2613 0.0975342H202.402L260.472 99.9056Z" fill="white"/>
</mask>
<g mask="url(#mask1_239_5)">
<path d="M28.1912 0.0975342H260.554V199.714H28.1912V0.0975342Z" fill="#054976"/>
</g>
</g>
<mask id="mask2_239_5" style="mask-type:luminance" maskUnits="userSpaceOnUse" x="112" y="18" width="122" height="115">
<path d="M112.07 18.2444H233.05V132.772H112.07V18.2444Z" fill="white"/>
</mask>
<g mask="url(#mask2_239_5)">
<mask id="mask3_239_5" style="mask-type:luminance" maskUnits="userSpaceOnUse" x="66" y="3" width="187" height="219">
<path d="M142.744 3.08411L252.003 52.1438L176.183 221.005L66.9236 171.939L142.744 3.08411Z" fill="white"/>
</mask>
<g mask="url(#mask3_239_5)">
<mask id="mask4_239_5" style="mask-type:luminance" maskUnits="userSpaceOnUse" x="66" y="3" width="187" height="219">
<path d="M142.744 3.08411L252.003 52.1438L176.183 221.005L66.9236 171.939L142.744 3.08411Z" fill="white"/>
</mask>
<g mask="url(#mask4_239_5)">
<path d="M169.365 44.0344C169.75 44.3179 170.096 44.6267 170.411 44.9606C171.105 45.6915 172.05 46.6934 172.232 47.8591C173.152 47.7205 174.356 47.5881 175.698 47.5629C175.515 47.4873 175.333 47.4117 175.15 47.3235C175.131 47.3235 175.074 47.292 175.062 47.2857C174.52 46.9895 174.274 46.3342 174.457 45.7545C172.825 44.9858 171.117 44.4124 169.365 44.0344ZM168.647 48.1048C168.691 48.2623 168.723 48.4262 168.748 48.5837C168.811 48.5648 168.88 48.5522 168.956 48.5333C168.887 48.4388 168.685 48.1552 168.647 48.1048ZM158.503 44.759C158.37 44.5384 158.282 44.2864 158.257 44.0218C158.08 44.0533 157.904 44.0785 157.727 44.11C157.986 44.3242 158.244 44.5384 158.503 44.759ZM159.296 45.4269C160.059 46.0822 160.815 46.769 161.533 47.4873L161.785 47.7457C162.504 48.464 163.304 49.2579 163.821 50.2031C164.375 49.9762 164.936 49.7683 165.503 49.5667C165.427 49.4469 165.358 49.3272 165.282 49.2138C164.873 48.5585 164.488 47.941 163.915 47.481C163.493 47.1471 163.039 46.8446 162.567 46.58C161.691 46.1074 160.708 45.7545 159.637 45.534C159.517 45.5088 159.404 45.471 159.296 45.4269ZM223.371 76.1065C222.993 78.6206 222.401 81.1473 221.588 83.6551C222.905 82.439 224.191 81.1599 225.274 79.6918C225.741 79.0617 226.509 78.8853 227.19 79.2507C227.505 79.4272 227.763 79.6981 227.921 80.0195C227.914 79.9186 227.908 79.8178 227.908 79.717C227.524 71.9668 225.507 64.3047 222.124 57.4681C223.296 61.4 223.882 65.5271 223.863 69.7236C224.222 69.5661 224.638 69.5787 225.029 69.7929C225.621 70.1143 226.056 70.8767 225.703 71.658C224.966 73.2963 224.184 74.7896 223.371 76.1065ZM158.118 49.2138C158.723 50.1842 159.252 51.2679 159.422 52.3769C159.756 52.1816 160.097 51.9862 160.462 51.7909C160.084 51.4003 159.725 50.9844 159.372 50.5811C158.944 50.0833 158.534 49.6108 158.118 49.2138ZM151.313 47.1156C152.441 48.1426 153.455 49.2264 154.338 50.3606L154.35 50.3795C154.218 50.1527 154.073 49.9321 153.922 49.7242C153.052 48.5522 152.214 47.7142 151.313 47.1156ZM145.226 47.4243C143.519 48.1678 142.353 48.9807 141.761 49.8376C143.796 50.222 145.781 50.9277 147.608 51.6838C146.89 50.6378 146.146 49.5604 145.529 48.4199C145.327 48.0418 145.258 47.7079 145.226 47.4243ZM210.297 102.779C209.534 103.592 208.747 104.379 207.94 105.142C208.18 105.06 208.425 104.978 208.659 104.896C212.37 103.598 216.157 102.344 219.818 101.134L220.297 100.977C220.738 100.832 221.198 100.863 221.582 101.077C221.992 101.298 222.281 101.695 222.401 102.142C226.075 96.2194 228.034 88.9921 227.959 81.3931C227.908 81.5002 227.851 81.601 227.782 81.7018C224.846 85.8416 221.96 88.6203 218.967 90.1893C218.753 90.6178 218.539 91.0462 218.318 91.4747C218.583 91.3109 218.847 91.147 219.106 90.9832C220.901 89.8427 222.464 88.7085 223.882 87.524C224.399 87.0955 225.041 87.0199 225.596 87.3223C226.1 87.5933 226.446 88.1352 226.509 88.7338C226.566 89.3072 226.346 89.849 225.904 90.2271C224.38 91.5188 222.716 92.8672 220.964 94.0203C221.109 94.0581 221.261 94.1148 221.406 94.1904C221.966 94.4992 222.338 95.0915 222.351 95.6964C222.357 96.2446 222.067 96.7297 221.557 97.0322L220.82 97.4607C217.625 99.3321 214.008 101.449 210.297 102.779ZM199.68 111.361C199.32 111.581 198.955 111.789 198.583 111.997C199.176 112.003 199.768 111.997 200.348 111.978C201.961 111.934 203.429 111.934 204.834 111.966L205.237 111.896C205.546 111.846 205.848 111.789 206.157 111.732C211.16 110.705 214.985 109.382 218.186 107.574C219.2 106.522 220.145 105.4 221.009 104.215C219.106 104.902 217.215 105.602 215.319 106.295C213.51 106.963 211.696 107.624 209.881 108.286C209.1 108.569 208.312 108.891 207.474 109.244C204.947 110.283 202.332 111.367 199.68 111.361ZM190.31 115.677C189.913 115.809 189.516 115.935 189.119 116.049C191.079 116.364 192.793 116.528 194.481 116.553C195.162 116.565 195.83 116.559 196.491 116.546C196.094 116.439 195.71 116.301 195.351 116.118C195.244 116.061 195.149 115.998 195.067 115.923C193.618 115.973 191.955 115.967 190.31 115.677ZM156.997 115.626C155.894 115.582 154.867 115.595 153.89 115.652C148.956 115.954 145.604 117.523 143.349 120.598C143.071 120.976 142.8 121.367 142.523 121.789C143.506 121.291 144.571 120.9 145.567 120.535C146.008 120.371 146.436 120.214 146.833 120.062C147.161 119.93 147.583 119.722 148.024 119.508C149.618 118.733 151.603 117.763 153.065 118.248C153.134 118.273 153.197 118.298 153.26 118.33C153.455 118.437 153.607 118.601 153.689 118.783C154.464 117.914 155.276 117.101 156.133 116.345C156.354 116.149 156.644 115.904 156.997 115.626ZM147.753 127.624C147.854 127.68 147.948 127.743 148.037 127.825C148.1 127.674 148.169 127.523 148.232 127.372C148.03 127.428 147.822 127.491 147.621 127.561C147.671 127.579 147.709 127.598 147.753 127.624ZM140.33 125.664C139.946 126.414 139.568 127.17 139.203 127.907C139.032 128.26 138.862 128.613 138.686 128.966L139.139 128.903C139.681 128.285 140.57 127.787 141.799 127.422C142.511 126.338 143.859 125.651 145.088 125.084C146.688 124.347 148.364 123.906 150.084 123.767C150.507 123.043 150.954 122.343 151.42 121.669C150.689 122.028 149.889 122.331 149.158 122.602C148.711 122.766 148.289 122.917 147.992 123.055C147.501 123.276 146.997 123.534 146.474 123.793C144.76 124.656 142.813 125.639 140.897 125.759C140.696 125.771 140.501 125.74 140.33 125.664ZM116.027 123.087C116.273 123.244 116.525 123.396 116.796 123.541C119.638 125.097 123.381 125.878 126.393 126.502L126.708 126.571C128.629 126.968 130.551 127.321 132.429 127.611C132.731 127.661 133.053 127.687 133.368 127.712C133.614 127.737 133.859 127.756 134.105 127.787C134.414 127.189 134.716 126.584 135.019 125.966C137.892 120.182 141.15 113.629 148.181 111.877C153.833 110.472 159.593 111.14 165.011 111.953C165.95 111.896 166.807 112.029 167.557 112.35L168.779 112.533C170.676 112.823 172.61 113.005 174.545 113.081C174.803 113.018 175.074 113.012 175.339 113.062L175.635 113.119C185.288 113.289 193.895 110.535 201.217 104.921C202.017 104.304 202.824 103.642 203.611 102.943C203.567 102.52 203.744 102.105 204.109 101.846C204.639 101.481 205.218 101.134 205.88 100.788C211.015 95.583 214.922 89.2504 217.247 82.3949C217.026 82.4075 216.806 82.3634 216.604 82.25C216.05 81.9476 215.842 81.2986 216.119 80.7378C216.787 79.4146 217.631 78.0598 218.835 76.3523C220.971 65.0672 218.318 54.4247 211.355 46.3657C205.88 40.0206 199.113 34.5576 191.791 30.5565C183.675 26.1206 175.175 23.7073 167.223 23.575C160.991 23.4742 140.179 24.3059 131.572 39.1259C135.05 41.7534 137.508 44.1856 139.385 46.8761C140.639 45.4143 142.75 44.11 145.68 42.9884C150.557 41.1296 156.001 39.8694 161.426 39.359C167.097 38.8234 173.02 40.0584 178.111 42.8372C183.631 45.8554 187.947 50.5559 190.272 56.0882C194.878 67.0646 192.868 82.376 181.526 88.9858C173.43 93.7053 164.01 94.2093 154.898 94.7008C152.353 94.8331 149.719 94.9781 147.192 95.2112C139.121 95.9547 132.486 98.8091 127.476 103.686C124.433 106.641 122.013 109.823 120.287 113.138C119.285 115.047 118.478 117.082 117.697 119.048C117.174 120.377 116.632 121.751 116.027 123.087ZM116.746 127.359C115.366 126.609 114.181 125.733 113.129 124.694C112.814 124.379 112.65 123.969 112.663 123.553C112.373 123.15 112.228 122.677 112.266 122.173C112.858 113.995 118.504 106.616 120.911 103.825C124.464 99.6912 130.413 94.2976 138.585 92.0481C143.506 90.6934 148.654 90.4413 153.626 90.1956C154.678 90.1452 155.73 90.0948 156.782 90.0381C169.781 89.2756 182.812 87.5429 186.832 75.7537C189.251 68.665 188.376 60.9778 184.437 54.6516C184.085 54.431 183.751 54.2105 183.417 53.99C182.743 53.5552 182.112 53.1393 181.451 52.7802C180.31 52.1564 179.315 51.8161 178.212 51.6775C175.578 51.3498 172.743 51.6082 169.788 52.4588C167.418 53.1456 165.125 54.179 162.907 55.1872C161.477 55.8299 160.015 56.4978 158.515 57.0712C158.717 57.3295 158.874 57.6004 158.994 57.8903C159.133 58.2242 159.126 58.6023 158.975 58.9552C158.818 59.3143 158.515 59.5979 158.156 59.7239C156.423 60.354 154.464 59.4971 152.775 58.5771C152.328 58.3314 151.886 58.073 151.464 57.8273C151.086 57.6068 150.721 57.3925 150.374 57.2035C150.185 57.0964 149.996 57.0019 149.813 56.9136C147.999 56.0378 146.102 55.2502 144.262 54.4814C142.693 53.8324 141.074 53.1519 139.499 52.4273C139.492 52.421 139.455 52.4021 139.448 52.3958C139.278 52.358 139.108 52.295 138.957 52.2131C138.749 52.0997 138.572 51.9547 138.427 51.7783C138.339 51.7468 138.251 51.709 138.169 51.6649C137.898 51.5137 137.665 51.2931 137.482 51.0033C134.842 46.8257 130.898 43.8453 127.382 41.4762C126.525 40.8965 126.399 39.6741 126.771 38.8297C133.412 23.8711 153.89 17.7024 170.689 19.3407C178.281 20.0842 186.309 22.6676 193.895 26.8137C194.336 27.0531 194.771 27.2926 195.2 27.5446C196.58 28.1936 197.985 28.9119 199.333 29.6429C206.39 33.4991 212.433 38.2122 217.291 43.65C226.963 54.4877 232.401 68.4949 232.205 82.0799C231.979 97.6938 225.016 110.661 213.573 116.761C207.707 119.886 200.871 121.335 193.801 120.951C186.901 120.579 181.602 119.596 177.122 117.87C176.315 117.87 175.591 117.857 174.917 117.826C171.924 117.687 168.918 117.195 166.013 116.723C165.232 116.597 164.451 116.471 163.669 116.351C163.329 116.42 163.064 116.509 162.812 116.616C160.878 117.454 159.025 118.808 157.293 120.642C154.735 123.352 152.391 126.363 150.5 129.375C150.771 129.533 151.017 129.716 151.244 129.911C151.59 130.226 151.748 130.692 151.66 131.158C151.571 131.618 151.256 131.99 150.822 132.148C149.246 132.727 147.476 132.538 145.762 132.349C144.93 132.261 144.142 132.173 143.412 132.179C141.124 132.192 138.673 132.217 136.247 132.293C135.636 132.482 134.93 132.406 134.332 132.085C134.319 132.078 134.307 132.072 134.294 132.066C133.506 132.041 132.719 131.864 131.956 131.681C131.603 131.606 131.257 131.524 130.917 131.461C128.768 131.064 126.474 130.635 124.2 130.043C121.856 129.432 119.146 128.676 116.746 127.359Z" fill="white"/>
</g>
</g>
</g>
<mask id="mask5_239_5" style="mask-type:luminance" maskUnits="userSpaceOnUse" x="87" y="145" width="48" height="45">
<path d="M87.8745 145.676H134.653V189.229H87.8745V145.676Z" fill="white"/>
</mask>
<g mask="url(#mask5_239_5)">
<mask id="mask6_239_5" style="mask-type:luminance" maskUnits="userSpaceOnUse" x="66" y="3" width="187" height="219">
<path d="M142.744 3.08423L252.003 52.1439L176.183 221.005L66.9236 171.939L142.744 3.08423Z" fill="white"/>
</mask>
<g mask="url(#mask6_239_5)">
<mask id="mask7_239_5" style="mask-type:luminance" maskUnits="userSpaceOnUse" x="66" y="3" width="187" height="219">
<path d="M142.744 3.08423L252.003 52.1439L176.183 221.005L66.9236 171.939L142.744 3.08423Z" fill="white"/>
</mask>
<g mask="url(#mask7_239_5)">
<path d="M110.791 153.905C113.425 155.348 115.908 157.112 118.302 158.814C119.071 159.362 119.833 159.898 120.577 160.414C121.585 160.099 122.599 159.721 123.582 159.356C124.389 159.06 125.227 158.751 126.059 158.474C126.317 158.392 126.594 158.291 126.884 158.184C127.375 158.007 127.911 157.818 128.472 157.654C127.281 157.276 126.09 156.911 124.918 156.558C121.547 155.531 118.069 154.472 114.761 153.105C113.412 152.551 111.982 151.952 110.621 151.215C110.092 150.931 109.222 151.171 108.454 151.385C108.17 151.467 107.899 151.536 107.647 151.587C107.181 151.687 106.708 151.788 106.236 151.889C107.685 152.368 109.191 153.036 110.791 153.905ZM120.646 166.545C120.545 166.879 120.438 167.219 120.325 167.578L120.438 167.528C121.931 166.841 123.526 166.28 125.309 165.808C125.832 164.781 126.474 163.603 127.249 162.462C125.8 164.384 123.5 165.329 121.635 166.098C121.314 166.23 120.986 166.381 120.646 166.545ZM121.093 174.617C120.734 174.837 120.381 175.058 120.035 175.272C119.606 175.537 119.178 175.801 118.737 176.066C119.02 176.028 119.298 175.99 119.575 175.953L120.255 175.858C120.369 175.845 120.482 175.839 120.589 175.845C120.74 175.448 120.911 175.045 121.093 174.617ZM119.55 179.267C118.888 179.45 118.17 179.708 117.388 180.036C117.054 180.181 116.72 180.382 116.361 180.596C116.134 180.729 115.901 180.867 115.662 181C116.223 180.918 116.765 180.83 117.306 180.697C117.729 180.59 118.151 180.64 118.523 180.842C118.85 181.025 119.109 181.308 119.26 181.636C119.279 180.886 119.373 180.105 119.55 179.267ZM91.718 176.923C92.3166 177.584 93.1042 178.177 94.1187 178.731C95.9334 179.721 98.0631 180.363 99.9471 180.93L100.432 181.082C103.772 182.096 106.809 182.871 109.701 183.438C109.752 183.041 109.903 182.676 110.148 182.386C110.892 180.357 111.661 178.334 112.429 176.312C113.457 173.602 114.521 170.811 115.517 168.032C115.429 168.026 115.347 168.013 115.265 168.001C115.12 167.982 114.994 167.938 114.874 167.875C114.345 167.585 114.118 166.923 114.351 166.325C114.849 165.02 116.008 164.302 116.941 163.873C116.941 163.873 117.143 163.25 117.225 163.017C114.761 161.044 111.579 158.625 108.233 156.797C105.208 155.147 102.405 154.176 99.8904 153.912C99.7014 156.281 98.605 158.915 97.7103 161.07C97.4771 161.637 97.2566 162.172 97.0739 162.645C96.7651 163.451 96.4438 164.258 96.1161 165.058C95.4041 166.841 94.6669 168.675 94.1124 170.527C93.936 171.094 93.81 171.693 93.6776 172.329C93.3878 173.69 93.0916 175.089 92.3229 176.268C92.1591 176.52 91.9259 176.728 91.6676 176.866C91.6865 176.885 91.7054 176.904 91.718 176.923ZM92.1213 182.777C90.1176 181.686 89.0023 180.59 88.7061 179.424C88.5297 178.719 88.662 178.019 89.0968 177.345C89.2606 177.093 89.4938 176.866 89.7647 176.709C89.5694 176.526 89.4244 176.293 89.3425 176.016C88.3155 172.689 90.3066 168.341 91.907 164.844C92.2284 164.126 92.5371 163.458 92.7892 162.853C93.0349 162.273 93.2744 161.7 93.5201 161.126C94.2699 159.375 95.0386 157.56 95.6624 155.739C95.8263 155.26 95.9586 154.75 96.0909 154.214C96.2169 153.735 96.343 153.237 96.5005 152.752C96.4564 152.494 96.4816 152.242 96.5887 152.021C96.6706 151.832 96.8029 151.675 96.9731 151.561C97.1621 151.19 97.3637 150.862 97.5906 150.578C97.9245 150.162 98.4853 150.055 98.9579 150.314C98.9831 150.326 99.0146 150.345 99.0398 150.364C99.1532 150.263 99.2855 150.181 99.4305 150.118C101.34 149.287 103.369 148.745 105.328 148.215C106.494 147.9 107.704 147.579 108.857 147.201C110.879 146.533 112.411 147.327 113.898 148.089C114.408 148.354 114.937 148.619 115.498 148.846C118.371 150.005 121.383 150.931 124.307 151.839C127.231 152.74 130.261 153.678 133.166 154.844C133.254 154.876 133.343 154.92 133.418 154.964C134.181 155.38 134.54 156.161 134.351 156.999C134.231 157.547 133.897 158.026 133.456 158.347C133.525 158.492 133.582 158.65 133.601 158.814C133.658 159.211 133.532 159.595 133.248 159.891C132.738 160.421 132.063 160.83 131.143 161.151C131.137 161.221 131.131 161.29 131.112 161.353C130.444 164.201 129.039 166.948 127.684 169.607C126.941 171.069 126.166 172.575 125.554 174.043C124.685 176.123 123.607 178.706 123.173 181.296C123.16 181.384 123.141 181.485 123.116 181.592C123.519 181.649 123.878 181.768 124.193 181.938C124.445 182.071 124.666 182.247 124.855 182.449C125.315 182.934 125.365 183.577 124.987 184.125C124.269 185.19 123.11 185.391 122.095 185.574C121.856 185.612 121.61 185.656 121.377 185.713C120.148 185.996 118.907 186.343 117.577 186.771C115.189 187.54 112.782 188.107 110.211 188.51C109.922 188.555 109.625 188.51 109.373 188.372C109.172 188.258 109.002 188.095 108.876 187.899C106.765 187.496 97.244 185.58 92.1213 182.777Z" fill="white"/>
</g>
</g>
</g>
<mask id="mask8_239_5" style="mask-type:luminance" maskUnits="userSpaceOnUse" x="170" y="42" width="5" height="7">
<path d="M170.14 42.4403H174.98V48.8925H170.14V42.4403Z" fill="white"/>
</mask>
<g mask="url(#mask8_239_5)">
<mask id="mask9_239_5" style="mask-type:luminance" maskUnits="userSpaceOnUse" x="66" y="3" width="187" height="219">
<path d="M142.744 3.08423L252.003 52.1439L176.183 221.005L66.9236 171.939L142.744 3.08423Z" fill="white"/>
</mask>
<g mask="url(#mask9_239_5)">
<mask id="mask10_239_5" style="mask-type:luminance" maskUnits="userSpaceOnUse" x="66" y="3" width="187" height="219">
<path d="M142.744 3.08423L252.003 52.1439L176.183 221.005L66.9236 171.939L142.744 3.08423Z" fill="white"/>
</mask>
<g mask="url(#mask10_239_5)">
<path d="M172.976 48.0041C172.762 47.8844 172.604 47.6954 172.541 47.4685C172.497 47.3236 172.459 47.1787 172.422 47.0338C172.396 46.9266 172.371 46.8195 172.34 46.7124C172.302 46.7124 172.258 46.7124 172.214 46.7061C171.962 46.7061 171.728 46.6431 171.521 46.536C170.972 46.2335 170.714 45.5908 170.89 44.9733C171.073 44.3432 171.659 43.9526 172.346 43.9967C172.718 44.0219 173.26 44.0849 173.745 44.3495C174.028 44.507 174.268 44.715 174.457 44.9796C175.055 45.8177 174.734 47.0023 174.186 47.7521C173.915 48.1238 173.398 48.2309 172.976 48.0041Z" fill="white"/>
</g>
</g>
</g>
<mask id="mask11_239_5" style="mask-type:luminance" maskUnits="userSpaceOnUse" x="74" y="24" width="122" height="174">
<path d="M74.97 24.6967H195.949V197.294H74.97V24.6967Z" fill="white"/>
</mask>
<g mask="url(#mask11_239_5)">
<mask id="mask12_239_5" style="mask-type:luminance" maskUnits="userSpaceOnUse" x="36" y="24" width="193" height="176">
<path d="M191.192 199.707L36.6472 154.932L74.3525 24.7849L228.897 69.5662L191.192 199.707Z" fill="white"/>
</mask>
<g mask="url(#mask12_239_5)">
<mask id="mask13_239_5" style="mask-type:luminance" maskUnits="userSpaceOnUse" x="37" y="24" width="193" height="176">
<path d="M37.208 155.096L191.753 199.871L229.465 69.73L74.9133 24.9487L37.208 155.096Z" fill="white"/>
</mask>
<g mask="url(#mask13_239_5)">
<path d="M194.336 187.653C193.826 190.382 192.263 192.6 189.68 194.244C185.439 196.947 180.657 196.658 175.862 193.413C172.327 191.018 170.052 187.899 169.939 187.748L117.206 109.111C115.87 107.215 112.077 99.0801 109.304 93.1383C108.246 90.8636 107.332 88.904 106.834 87.8832C105.391 84.9659 96.6329 73.0254 93.9802 69.4339C92.9972 68.098 93.0161 66.2644 94.0243 64.9727C94.1188 64.8467 94.2196 64.7333 94.3204 64.6136L82.1091 54.7273C80.4645 53.3978 79.3807 51.5138 79.0468 49.4281L75.0771 24.6147L96.7211 39.6931C98.309 40.802 99.4936 42.4403 100.035 44.3054L104.137 58.3252C104.333 58.2685 104.528 58.2243 104.705 58.1802C105.606 57.9723 106.538 58.1172 107.326 58.5457C107.842 58.8292 108.296 59.2388 108.636 59.7555C111.012 63.3471 117.073 72.3071 122.209 78.0158C128.837 85.3754 137.438 94.9845 137.526 95.079L137.558 95.1231L190.335 174.195C190.669 174.636 195.508 181.384 194.336 187.653ZM176.712 192.215C177.185 192.53 177.658 192.82 178.124 193.072C181.936 195.152 185.547 195.133 188.886 193.003C191.117 191.585 192.459 189.695 192.887 187.389C193.505 184.106 192.194 180.546 190.959 178.095C187.185 185.505 176.895 188.441 173.209 189.273C174.135 190.212 175.326 191.283 176.712 192.215ZM172.05 188.019C174.432 187.54 186.794 184.66 190.077 176.488C189.548 175.6 189.163 175.064 189.151 175.045L189.138 175.033C183.952 182.821 174.23 185.782 170.928 186.589L171.142 186.91C171.155 186.916 171.476 187.357 172.05 188.019ZM135.705 95.2428C135.34 94.8395 134.861 94.304 134.281 93.6487C122.7 97.5616 117.987 103.566 116.79 105.369C117.181 106.131 117.533 106.793 117.83 107.322C119.48 105.009 124.483 99.3007 135.705 95.2428ZM118.686 108.677L170.052 185.278C172.485 184.717 183.196 181.838 188.25 173.697L136.688 96.4526C124.553 100.718 119.726 107.095 118.686 108.677ZM98.6303 44.7213C98.1767 43.1712 97.2 41.8165 95.8768 40.8966L78.675 28.912L88.7503 44.6898C89.4939 44.5764 90.7856 44.6016 91.945 45.7799C93.035 46.8888 93.0854 48.1742 92.0899 49.3084C91.7433 49.7054 90.7037 50.5182 90.0358 50.6631C89.412 50.8081 88.2148 50.8333 87.2318 49.4596C86.1543 47.9537 86.7907 46.3721 87.4964 45.4522L77.3581 29.5799L80.496 49.2013C80.7733 50.9278 81.6743 52.4841 83.0353 53.5868L95.2971 63.5109C97.7923 60.9149 100.584 59.5098 102.745 58.7536L98.6303 44.7213ZM88.429 48.6027C88.9331 49.3084 89.4057 49.3021 89.7207 49.2328C89.9664 49.1761 90.7352 48.6342 90.9872 48.3444C91.4031 47.8718 91.5354 47.4496 90.899 46.8132C90.0736 45.9752 89.1536 46.0886 88.8134 46.1705C88.5046 46.5171 87.7044 47.5882 88.429 48.6027ZM105.038 59.6106C102.776 60.1336 98.4917 61.6395 95.1837 65.8738C94.7048 66.485 94.604 67.2915 94.8686 68.0035C96.4943 65.836 100.955 60.6565 106.979 60.0768C106.45 59.6358 105.732 59.453 105.038 59.6106ZM121.119 78.9988C116.324 73.6618 110.747 65.5587 108.038 61.5009C101.743 61.5261 96.9165 67.6696 95.7319 69.333C99.4054 74.3171 106.778 84.4429 108.151 87.2342C108.662 88.2676 109.581 90.2398 110.64 92.5208C112.247 95.9611 114.358 100.492 116.034 103.869C117.836 101.411 122.707 96.1439 133.217 92.4641C130.085 88.9733 125.221 83.5544 121.119 78.9988Z" fill="white"/>
</g>
</g>
</g>
<mask id="mask14_239_5" style="mask-type:luminance" maskUnits="userSpaceOnUse" x="74" y="24" width="122" height="174">
<path d="M74.97 24.6967H195.949V197.294H74.97V24.6967Z" fill="white"/>
</mask>
<g mask="url(#mask14_239_5)">
<mask id="mask15_239_5" style="mask-type:luminance" maskUnits="userSpaceOnUse" x="36" y="24" width="193" height="176">
<path d="M191.192 199.707L36.6472 154.932L74.3525 24.7849L228.897 69.5662L191.192 199.707Z" fill="white"/>
</mask>
<g mask="url(#mask15_239_5)">
<mask id="mask16_239_5" style="mask-type:luminance" maskUnits="userSpaceOnUse" x="37" y="24" width="193" height="176">
<path d="M37.208 155.096L191.753 199.871L229.465 69.73L74.9133 24.9487L37.208 155.096Z" fill="white"/>
</mask>
<g mask="url(#mask16_239_5)">
<path d="M194.336 -540.372L-1019.14 -538.154L-1021.73 -536.509L-1021.31 -540.397L-1026.09 -540.687L-1030.89 -543.932L-1020.61 -545.495L-1022.88 -548.614L-1022.99 -548.765L-1075.73 -627.401C-1077.06 -629.298 -1080.86 -637.433 -1083.63 -643.375C-1084.69 -645.649 -1085.6 -647.609 -1086.1 -648.63C-1087.54 -651.547 -1096.3 -663.487 -1098.95 -667.079C-1099.94 -668.415 -1099.92 -670.248 -1098.91 -671.54C-1098.81 -671.666 -1098.71 -671.78 -1098.61 -671.899L-1110.82 -681.786C-1112.47 -683.115 -1113.55 -684.999 -1113.89 -687.085L-1117.86 -711.898L-1096.21 -696.82C-1094.62 -695.711 -1093.44 -694.073 -1092.9 -692.207L-1088.8 -678.188C-1088.6 -678.244 -1088.41 -678.288 -1088.23 -678.333C-1087.33 -678.541 -1086.4 -678.396 -1085.61 -677.967C-1085.09 -677.684 -1084.64 -677.274 -1084.3 -676.757C-1081.92 -673.166 -1075.86 -664.206 -1070.72 -658.497C-1064.1 -651.137 -1055.49 -641.528 -1055.41 -641.434L-1055.38 -641.39L-1002.6 -562.318C-1002.26 -561.877 -997.425 -555.129 -998.597 -548.859L194.336 -540.372ZM176.712 -535.81C177.185 -535.495 177.657 -535.205 178.124 -534.953C181.936 -532.874 185.546 -532.893 188.886 -535.022C191.116 -536.44 192.458 -538.33 192.887 -540.637C193.504 -543.919 192.194 -547.479 190.959 -549.931C187.185 -542.521 176.895 -539.584 173.209 -538.753C174.135 -537.814 175.326 -536.743 176.712 -535.81ZM172.049 188.019C174.431 187.54 186.794 184.661 190.077 176.488C189.547 175.6 189.163 175.064 189.15 175.045L189.138 175.033C183.952 182.821 174.23 185.782 170.928 186.589L171.142 186.91C171.155 186.916 171.476 187.357 172.049 188.019ZM135.705 95.2428C135.34 94.8395 134.861 94.304 134.281 93.6487C122.7 97.5616 117.987 103.566 116.79 105.369C117.18 106.131 117.533 106.793 117.829 107.322C119.48 105.009 124.483 99.3007 135.705 95.2428ZM118.686 108.677L170.052 185.278C172.484 184.717 183.196 181.838 188.249 173.697L136.688 96.4526C124.552 100.718 119.726 107.095 118.686 108.677ZM98.6301 44.7213C98.1764 43.1713 97.1997 41.8165 95.8766 40.8966L78.6748 28.912L88.7501 44.6898C89.4937 44.5764 90.7853 44.6016 91.9447 45.7798C93.0348 46.8889 93.0852 48.1743 92.0896 49.3084C91.743 49.7054 90.7034 50.5182 90.0355 50.6631C89.4117 50.8081 88.2145 50.8333 87.2316 49.4597C86.1541 47.9537 86.7905 46.3722 87.4962 45.4522L77.3579 29.58L80.4957 49.2013C80.7731 50.9278 81.6741 52.4841 83.035 53.5869L95.2969 63.5109C97.7921 60.9149 100.583 59.5098 102.745 58.7537L98.6301 44.7213ZM88.4287 48.6027C88.9329 49.3084 89.4054 49.3021 89.7205 49.2328C89.9662 49.1761 90.7349 48.6342 90.9869 48.3444C91.4028 47.8718 91.5352 47.4496 90.8988 46.8132C90.0734 45.9752 89.1533 46.0886 88.8131 46.1705C88.5044 46.5171 87.7041 47.5883 88.4287 48.6027ZM105.038 59.6106C102.776 60.1336 98.4915 61.6395 95.1835 65.8738C94.7046 66.485 94.6038 67.2915 94.8684 68.0035C96.494 65.836 100.955 60.6566 106.979 60.0768C106.45 59.6358 105.731 59.4531 105.038 59.6106ZM121.118 78.9988C116.323 73.6619 110.747 65.5588 108.037 61.5009C101.743 61.5261 96.9163 67.6696 95.7316 69.3331C99.4052 74.3171 106.777 84.4429 108.151 87.2343C108.661 88.2676 109.581 90.2398 110.64 92.5208C112.247 95.9611 114.357 100.492 116.033 103.869C117.836 101.411 122.706 96.1439 133.216 92.4641C130.085 88.9733 125.22 83.5544 121.118 78.9988Z" fill="#054976"/>
</g>
</g>
</g>
<mask id="mask17_239_5" style="mask-type:luminance" maskUnits="userSpaceOnUse" x="137" y="129" width="37" height="53">
<path d="M137.879 129.546H173.366V181.163H137.879V129.546Z" fill="white"/>
</mask>
<g mask="url(#mask17_239_5)">
<mask id="mask18_239_5" style="mask-type:luminance" maskUnits="userSpaceOnUse" x="36" y="24" width="193" height="176">
<path d="M191.192 199.707L36.647 154.932L74.3522 24.7849L228.897 69.5662L191.192 199.707Z" fill="white"/>
</mask>
<g mask="url(#mask18_239_5)">
<mask id="mask19_239_5" style="mask-type:luminance" maskUnits="userSpaceOnUse" x="37" y="24" width="193" height="176">
<path d="M37.2078 155.096L191.753 199.871L229.464 69.73L74.913 24.9487L37.2078 155.096Z" fill="white"/>
</mask>
<g mask="url(#mask19_239_5)">
<path d="M138.881 130.881L171.054 180.659L172.289 179.865L140.116 130.081L138.881 130.881Z" fill="white"/>
</g>
</g>
</g>
<mask id="mask20_239_5" style="mask-type:luminance" maskUnits="userSpaceOnUse" x="124" y="106" width="13" height="19">
<path d="M124.975 106.963H136.266V124.706H124.975V106.963Z" fill="white"/>
</mask>
<g mask="url(#mask20_239_5)">
<mask id="mask21_239_5" style="mask-type:luminance" maskUnits="userSpaceOnUse" x="36" y="24" width="193" height="176">
<path d="M191.192 199.707L36.6472 154.932L74.3525 24.7848L228.897 69.5661L191.192 199.707Z" fill="white"/>
</mask>
<g mask="url(#mask21_239_5)">
<mask id="mask22_239_5" style="mask-type:luminance" maskUnits="userSpaceOnUse" x="37" y="24" width="193" height="176">
<path d="M37.208 155.096L191.753 199.871L229.465 69.7299L74.9133 24.9486L37.208 155.096Z" fill="white"/>
</mask>
<g mask="url(#mask22_239_5)">
<path d="M125.12 109.332L134.735 124.385L135.97 123.597L126.355 108.544L125.12 109.332Z" fill="white"/>
</g>
</g>
</g>
<mask id="mask23_239_5" style="mask-type:luminance" maskUnits="userSpaceOnUse" x="228" y="148" width="62" height="46">
<path d="M228.21 148.902H289.507V193.665H228.21V148.902Z" fill="white"/>
</mask>
<g mask="url(#mask23_239_5)">
<path d="M248.267 149.211V184.547L229.332 194.559H288.738L276.382 171.888L288.738 149.211H248.267Z" fill="#D36500"/>
</g>
<mask id="mask24_239_5" style="mask-type:luminance" maskUnits="userSpaceOnUse" x="223" y="184" width="17" height="10">
<path d="M223.371 184.39H239.502V193.665H223.371V184.39Z" fill="white"/>
</mask>
<g mask="url(#mask24_239_5)">
<path d="M223.781 184.931V193.091L239.212 184.931H223.781Z" fill="#D36500"/>
</g>
<mask id="mask25_239_5" style="mask-type:luminance" maskUnits="userSpaceOnUse" x="42" y="135" width="204" height="47">
<path d="M42.7087 135.594H245.954V181.163H42.7087V135.594Z" fill="white"/>
</mask>
<g mask="url(#mask25_239_5)">
<path d="M244.366 135.607H43.7673V181.031H244.366V135.607Z" fill="#D36500"/>
</g>
<mask id="mask26_239_5" style="mask-type:luminance" maskUnits="userSpaceOnUse" x="-1" y="148" width="62" height="46">
<path d="M-0.84375 148.902H60.4525V193.665H-0.84375V148.902Z" fill="white"/>
</mask>
<g mask="url(#mask26_239_5)">
<path d="M39.8671 184.931V149.211L-0.0119629 149.224L12.3443 171.888L0.000639135 194.572L59.3751 194.553L39.8671 184.931Z" fill="#D36500"/>
</g>
<mask id="mask27_239_5" style="mask-type:luminance" maskUnits="userSpaceOnUse" x="49" y="184" width="17" height="10">
<path d="M49.1609 184.39H65.2915V193.665H49.1609V184.39Z" fill="white"/>
</mask>
<g mask="url(#mask27_239_5)">
<path d="M64.989 193.085L65.052 184.931H49.3247L64.989 193.085Z" fill="#D36500"/>
</g>
<path d="M61.3171 170.639C59.5847 170.639 57.9974 170.223 56.5538 169.404C55.123 168.584 53.9825 167.407 53.126 165.876C52.2824 164.332 51.8662 162.542 51.8662 160.507C51.8662 158.44 52.2695 156.625 53.076 155.063C53.8954 153.487 55.0665 152.258 56.5796 151.382C58.091 150.513 59.8557 150.073 61.872 150.073C63.6367 150.073 65.1998 150.426 66.5596 151.131C67.9339 151.837 68.6275 152.933 68.6275 154.407C68.6388 155.334 68.3614 156.115 67.7952 156.752C67.2209 157.394 66.4596 157.709 65.5014 157.709C65.1304 157.709 64.8078 157.646 64.5432 157.507C64.2916 157.375 64.1029 157.218 63.99 157.028C63.869 156.846 63.819 156.701 63.8383 156.601C63.8383 156.568 63.9771 156.462 64.2658 156.273C64.5497 156.089 64.8013 155.838 65.0223 155.517C65.2562 155.183 65.3756 154.78 65.3756 154.307C65.3756 153.387 65.061 152.655 64.4432 152.115C63.819 151.578 62.956 151.308 61.8462 151.308C60.5993 151.308 59.4895 151.66 58.5201 152.366C57.5426 153.071 56.7877 154.105 56.2521 155.467C55.7101 156.826 55.4456 158.452 55.4456 160.33C55.4456 161.962 55.7279 163.45 56.3021 164.792C56.8877 166.121 57.7135 167.179 58.7717 167.968C59.8428 168.762 61.0655 169.152 62.4269 169.152C63.5351 169.152 64.4739 168.924 65.2498 168.471C66.0369 168.005 66.7483 167.255 67.3919 166.229C67.4919 166.045 67.6306 165.952 67.821 165.952C67.9839 165.952 68.1726 166.021 68.3743 166.153C68.6904 166.373 68.8533 166.594 68.8533 166.808C68.8533 166.947 68.8162 167.047 68.7533 167.11C67.9581 168.107 67.2209 168.85 66.5354 169.354C65.8611 169.845 65.1239 170.173 64.3174 170.362C63.5222 170.544 62.5269 170.639 61.3171 170.639ZM71.1181 170.134C70.9793 170.134 70.8664 170.071 70.7664 169.958C70.6777 169.826 70.639 169.675 70.639 169.505C70.6519 169.253 70.7035 169.102 70.7906 169.052C70.8922 168.987 71.0745 168.95 71.3455 168.95C71.8811 168.95 72.2585 168.868 72.4795 168.699C72.694 168.515 72.8199 168.295 72.857 168.044C72.9086 167.79 72.9328 167.407 72.9328 166.884V151.913C72.9328 151.395 72.915 151.018 72.8828 150.778C72.8634 150.526 72.7376 150.311 72.5053 150.123C72.2843 149.94 71.9069 149.845 71.3713 149.845C71.131 149.845 70.9487 149.815 70.8164 149.745C70.6971 149.663 70.639 149.487 70.639 149.216C70.639 149.102 70.6777 148.989 70.7664 148.889C70.8471 148.774 70.9681 148.698 71.1181 148.661C72.4101 148.497 73.5199 148.232 74.4458 147.88C74.7297 147.779 74.962 147.722 75.1507 147.703H75.2265C75.5604 147.703 75.7314 147.898 75.7314 148.284V166.884C75.7314 167.407 75.7443 167.79 75.7814 168.044C75.8314 168.295 75.9637 168.515 76.1847 168.699C76.3992 168.868 76.7767 168.95 77.3187 168.95H77.4945C77.659 168.95 77.7849 168.987 77.8736 169.052C77.9558 169.12 78.0058 169.271 78.0252 169.505C78.0252 169.675 77.98 169.826 77.8978 169.958C77.8107 170.071 77.6961 170.134 77.5461 170.134C76.3492 170.065 75.2765 170.034 74.32 170.034C73.3925 170.034 72.3279 170.065 71.1181 170.134ZM86.0566 170.412C84.6581 170.412 83.5499 169.996 82.7305 169.152C81.924 168.313 81.5207 167.205 81.5207 165.826V160.154C81.5207 159.638 81.5013 159.259 81.4707 159.02C81.432 158.769 81.2997 158.554 81.0674 158.365C80.8464 158.181 80.4738 158.088 79.9576 158.088C79.706 158.088 79.5173 158.056 79.4027 157.986C79.2834 157.904 79.2269 157.728 79.2269 157.457C79.2269 157.344 79.2576 157.23 79.3269 157.13C79.4092 157.017 79.535 156.947 79.706 156.928C80.9981 156.746 82.0998 156.475 83.0079 156.122C83.2902 156.02 83.5241 155.964 83.7128 155.946H83.8145C84.1484 155.946 84.3177 156.141 84.3177 156.525V165.8C84.3177 166.745 84.6081 167.463 85.2001 167.968C85.7856 168.471 86.4663 168.723 87.2422 168.723C88.1988 168.723 89.0117 168.491 89.686 168.018C90.3732 167.552 90.8264 167.079 91.0474 166.606V160.154C91.0474 159.638 91.0281 159.259 90.9974 159.02C90.9587 158.769 90.8329 158.554 90.6183 158.365C90.399 158.181 90.0199 158.088 89.4844 158.088C89.2327 158.088 89.044 158.056 88.9311 157.986C88.8101 157.904 88.7537 157.728 88.7537 157.457C88.7537 157.344 88.7924 157.23 88.8795 157.13C88.9617 157.017 89.0811 156.947 89.2327 156.928C90.5248 156.746 91.633 156.475 92.5605 156.122C92.8428 156.02 93.0767 155.964 93.2654 155.946H93.3412C93.6751 155.946 93.8445 156.141 93.8445 156.525V167.11C93.8445 168.32 94.651 168.924 96.2641 168.924C96.598 168.924 96.7689 169.12 96.7689 169.505C96.7689 169.794 96.598 169.971 96.2641 170.034L91.3249 170.362C91.1732 170.362 91.0861 170.312 91.0732 170.21C91.0539 170.123 91.0474 169.978 91.0474 169.757V168.044H90.9974C90.3925 168.597 89.9005 169.026 89.536 169.328C89.1827 169.618 88.7101 169.87 88.1246 170.084C87.531 170.299 86.8454 170.412 86.0566 170.412ZM99.9338 170.463C99.745 170.463 99.6063 170.399 99.5063 170.286C99.4047 170.186 99.3547 170.041 99.3547 169.858V151.963C99.3547 151.428 99.3353 151.042 99.3047 150.803C99.266 150.552 99.1337 150.337 98.9014 150.148C98.6804 149.965 98.3078 149.871 97.7916 149.871C97.54 149.871 97.3513 149.839 97.2367 149.769C97.1174 149.689 97.0609 149.518 97.0609 149.266C97.0609 149.134 97.0932 149.014 97.1625 148.913C97.2432 148.8 97.369 148.731 97.54 148.711C98.832 148.529 99.9338 148.258 100.842 147.905C101.126 147.805 101.358 147.747 101.547 147.729H101.648C101.982 147.729 102.152 147.924 102.152 148.308V157.559H102.228C102.813 156.972 103.476 156.538 104.22 156.247C104.975 155.946 105.718 155.794 106.462 155.794C107.672 155.794 108.762 156.109 109.738 156.726C110.709 157.331 111.478 158.181 112.032 159.272C112.6 160.369 112.89 161.603 112.89 162.977C112.89 164.356 112.567 165.618 111.932 166.758C111.288 167.886 110.425 168.774 109.335 169.429C108.257 170.084 107.105 170.412 105.883 170.412C104.068 170.412 102.492 169.908 101.169 168.9H101.018C100.929 169.07 100.829 169.297 100.716 169.581C100.614 169.87 100.502 170.084 100.389 170.236C100.268 170.387 100.118 170.463 99.9338 170.463ZM105.605 169.354C106.846 169.354 107.849 168.792 108.604 167.665C109.373 166.524 109.764 165.006 109.764 163.103C109.764 161.509 109.393 160.148 108.656 159.02C107.93 157.88 106.841 157.306 105.378 157.306C104.099 157.306 103.021 157.778 102.152 158.717V166.808C102.203 167.148 102.366 167.513 102.657 167.916C102.958 168.308 103.362 168.642 103.866 168.924C104.37 169.215 104.95 169.354 105.605 169.354ZM128.67 170.412C127.524 170.412 126.459 170.097 125.47 169.479C124.493 168.844 123.712 167.968 123.126 166.858C122.533 165.75 122.244 164.489 122.244 163.077C122.244 161.817 122.546 160.627 123.151 159.499C123.768 158.377 124.618 157.477 125.696 156.802C126.786 156.134 127.996 155.794 129.325 155.794C129.943 155.794 130.574 155.87 131.216 156.02C131.853 156.172 132.408 156.386 132.879 156.651H132.955V151.963C132.955 151.428 132.937 151.042 132.905 150.803C132.885 150.552 132.76 150.337 132.527 150.148C132.306 149.965 131.929 149.871 131.393 149.871C131.153 149.871 130.971 149.839 130.838 149.769C130.719 149.689 130.661 149.518 130.661 149.266C130.661 149.134 130.7 149.014 130.788 148.913C130.869 148.8 130.996 148.731 131.166 148.711C132.439 148.529 133.542 148.258 134.468 147.905C134.752 147.805 134.984 147.747 135.173 147.729H135.274C135.589 147.729 135.753 147.924 135.753 148.308V167.211C135.753 168.421 136.547 169.026 138.147 169.026C138.5 169.026 138.676 169.189 138.676 169.505C138.676 169.794 138.5 169.971 138.147 170.034L133.282 170.362C133.132 170.362 133.043 170.312 133.031 170.21C133.013 170.123 133.006 169.978 133.006 169.757V168.521H132.905C132.363 169.076 131.708 169.529 130.938 169.883C130.183 170.236 129.427 170.412 128.67 170.412ZM129.729 168.874C130.435 168.874 131.04 168.742 131.543 168.471C132.048 168.187 132.514 167.81 132.955 167.337V159.246C132.785 158.661 132.408 158.125 131.821 157.633C131.229 157.13 130.498 156.878 129.629 156.878C128.822 156.878 128.098 157.13 127.461 157.633C126.819 158.138 126.314 158.869 125.949 159.827C125.577 160.785 125.394 161.919 125.394 163.229C125.394 164.811 125.759 166.147 126.502 167.237C127.259 168.332 128.33 168.874 129.729 168.874ZM147.174 170.412C145.643 170.412 144.338 170.084 143.267 169.429C142.209 168.774 141.402 167.886 140.847 166.758C140.293 165.635 140.015 164.389 140.015 163.027C140.015 161.817 140.293 160.658 140.847 159.549C141.415 158.428 142.222 157.52 143.267 156.826C144.307 156.141 145.498 155.794 146.846 155.794C148.661 155.794 150.053 156.26 151.031 157.18C152.019 158.106 152.581 159.361 152.718 160.935C152.718 161.609 152.529 162.069 152.165 162.322C151.811 162.561 151.282 162.674 150.576 162.674H143.141C143.141 164.577 143.532 166.09 144.325 167.211C145.114 168.32 146.33 168.874 147.98 168.874C148.85 168.874 149.593 168.692 150.198 168.32C150.816 167.936 151.408 167.287 151.963 166.379C152.063 166.279 152.165 166.229 152.265 166.229C152.416 166.229 152.542 166.273 152.644 166.355C152.845 166.474 152.945 166.656 152.945 166.908C152.945 167.029 152.926 167.123 152.895 167.186C152.252 168.213 151.445 169.013 150.476 169.581C149.498 170.134 148.397 170.412 147.174 170.412ZM148.132 161.516C149.171 161.516 149.726 161.087 149.795 160.23C149.795 159.291 149.531 158.491 149.014 157.835C148.509 157.18 147.785 156.852 146.846 156.852C145.799 156.852 144.943 157.275 144.275 158.112C143.601 158.938 143.223 160.072 143.141 161.516H148.132ZM168.658 170.412C167.511 170.412 166.447 170.097 165.458 169.479C164.48 168.844 163.7 167.968 163.114 166.858C162.52 165.75 162.232 164.489 162.232 163.077C162.232 161.817 162.533 160.627 163.138 159.499C163.756 158.377 164.606 157.477 165.684 156.802C166.774 156.134 167.984 155.794 169.313 155.794C169.931 155.794 170.562 155.87 171.204 156.02C171.841 156.172 172.394 156.386 172.867 156.651H172.942V151.963C172.942 151.428 172.925 151.042 172.892 150.803C172.873 150.552 172.747 150.337 172.515 150.148C172.294 149.965 171.917 149.871 171.381 149.871C171.141 149.871 170.958 149.839 170.826 149.769C170.707 149.689 170.649 149.518 170.649 149.266C170.649 149.134 170.687 149.014 170.776 148.913C170.857 148.8 170.983 148.731 171.154 148.711C172.426 148.529 173.53 148.258 174.455 147.905C174.739 147.805 174.972 147.747 175.16 147.729H175.262C175.577 147.729 175.741 147.924 175.741 148.308V167.211C175.741 168.421 176.535 169.026 178.135 169.026C178.488 169.026 178.664 169.189 178.664 169.505C178.664 169.794 178.488 169.971 178.135 170.034L173.27 170.362C173.12 170.362 173.031 170.312 173.018 170.21C172.999 170.123 172.994 169.978 172.994 169.757V168.521H172.892C172.35 169.076 171.696 169.529 170.926 169.883C170.171 170.236 169.415 170.412 168.658 170.412ZM169.716 168.874C170.423 168.874 171.028 168.742 171.531 168.471C172.036 168.187 172.502 167.81 172.942 167.337V159.246C172.773 158.661 172.394 158.125 171.808 157.633C171.216 157.13 170.486 156.878 169.616 156.878C168.81 156.878 168.086 157.13 167.448 157.633C166.806 158.138 166.301 158.869 165.937 159.827C165.564 160.785 165.382 161.919 165.382 163.229C165.382 164.811 165.747 166.147 166.49 167.237C167.247 168.332 168.318 168.874 169.716 168.874ZM187.162 170.412C185.631 170.412 184.326 170.084 183.255 169.429C182.197 168.774 181.39 167.886 180.835 166.758C180.28 165.635 180.003 164.389 180.003 163.027C180.003 161.817 180.28 160.658 180.835 159.549C181.403 158.428 182.209 157.52 183.255 156.826C184.295 156.141 185.486 155.794 186.834 155.794C188.649 155.794 190.041 156.26 191.018 157.18C192.007 158.106 192.567 159.361 192.706 160.935C192.706 161.609 192.517 162.069 192.152 162.322C191.799 162.561 191.27 162.674 190.564 162.674H183.129C183.129 164.577 183.519 166.09 184.313 167.211C185.102 168.32 186.316 168.874 187.968 168.874C188.838 168.874 189.581 168.692 190.186 168.32C190.804 167.936 191.396 167.287 191.951 166.379C192.051 166.279 192.152 166.229 192.252 166.229C192.404 166.229 192.53 166.273 192.631 166.355C192.833 166.474 192.933 166.656 192.933 166.908C192.933 167.029 192.914 167.123 192.883 167.186C192.239 168.213 191.433 169.013 190.464 169.581C189.486 170.134 188.384 170.412 187.162 170.412ZM188.12 161.516C189.159 161.516 189.713 161.087 189.783 160.23C189.783 159.291 189.518 158.491 189.002 157.835C188.497 157.18 187.773 156.852 186.834 156.852C185.787 156.852 184.931 157.275 184.263 158.112C183.589 158.938 183.211 160.072 183.129 161.516H188.12ZM185.599 153.6C185.479 153.55 185.384 153.475 185.321 153.375C185.271 153.26 185.245 153.123 185.245 152.971C185.245 152.857 185.284 152.731 185.373 152.592L187.665 148.384C187.899 147.918 188.27 147.679 188.775 147.679C188.926 147.679 189.115 147.729 189.354 147.829C189.568 147.948 189.744 148.119 189.883 148.334C190.034 148.535 190.11 148.75 190.11 148.963C190.11 149.216 190.022 149.455 189.859 149.669L186.732 153.325C186.494 153.563 186.242 153.676 185.978 153.676C185.839 153.676 185.711 153.652 185.599 153.6ZM197.1 170.463C196.911 170.463 196.772 170.399 196.671 170.286C196.571 170.186 196.521 170.041 196.521 169.858V151.963C196.521 151.428 196.501 151.042 196.469 150.803C196.432 150.552 196.3 150.337 196.066 150.148C195.846 149.965 195.474 149.871 194.957 149.871C194.706 149.871 194.516 149.839 194.403 149.769C194.283 149.689 194.227 149.518 194.227 149.266C194.227 149.134 194.257 149.014 194.327 148.913C194.409 148.8 194.535 148.731 194.706 148.711C195.996 148.529 197.1 148.258 198.006 147.905C198.29 147.805 198.524 147.747 198.713 147.729H198.813C199.148 147.729 199.318 147.924 199.318 148.308V157.559H199.393C199.979 156.972 200.64 156.538 201.384 156.247C202.14 155.946 202.884 155.794 203.628 155.794C204.837 155.794 205.928 156.109 206.904 156.726C207.875 157.331 208.643 158.181 209.198 159.272C209.765 160.369 210.054 161.603 210.054 162.977C210.054 164.356 209.733 165.618 209.096 166.758C208.454 167.886 207.591 168.774 206.501 169.429C205.423 170.084 204.27 170.412 203.047 170.412C201.232 170.412 199.658 169.908 198.335 168.9H198.184C198.095 169.07 197.995 169.297 197.88 169.581C197.78 169.87 197.667 170.084 197.553 170.236C197.434 170.387 197.282 170.463 197.1 170.463ZM202.771 169.354C204.012 169.354 205.013 168.792 205.77 167.665C206.539 166.524 206.93 165.006 206.93 163.103C206.93 161.509 206.557 160.148 205.82 159.02C205.096 157.88 204.005 157.306 202.544 157.306C201.265 157.306 200.187 157.778 199.318 158.717V166.808C199.368 167.148 199.532 167.513 199.821 167.916C200.124 168.308 200.527 168.642 201.031 168.924C201.536 169.215 202.115 169.354 202.771 169.354ZM216.458 170.412C215.229 170.412 214.24 170.065 213.483 169.379C212.727 168.673 212.349 167.803 212.349 166.758C212.349 165.466 212.777 164.501 213.635 163.859C214.492 163.222 215.513 162.813 216.71 162.624C217.9 162.422 219.431 162.264 221.297 162.145V159.725C221.297 158.736 221.044 157.98 220.541 157.457C220.049 156.941 219.255 156.676 218.145 156.676C217.503 156.676 216.948 156.872 216.482 157.256C216.029 157.646 215.801 158.164 215.801 158.819C215.801 159.14 215.877 159.411 216.029 159.625C216.18 159.845 216.337 160.028 216.508 160.18C216.671 160.317 216.76 160.393 216.76 160.406C216.76 160.525 216.634 160.683 216.382 160.885C216.129 161.087 215.814 161.188 215.45 161.188C214.845 161.188 214.353 160.961 213.987 160.507C213.635 160.053 213.458 159.524 213.458 158.919C213.458 157.848 213.924 157.054 214.869 156.551C215.827 156.046 216.974 155.794 218.323 155.794C219.999 155.794 221.36 156.115 222.405 156.752C223.463 157.375 223.993 158.541 223.993 160.254V167.387C224.025 167.829 224.157 168.239 224.396 168.623C224.649 169.013 225.052 169.202 225.606 169.202C225.757 169.202 225.865 169.241 225.935 169.304C226.015 169.354 226.06 169.492 226.06 169.707C226.06 169.946 225.865 170.116 225.48 170.236C225.109 170.349 224.736 170.412 224.372 170.412C223.596 170.412 222.91 170.186 222.305 169.731C221.712 169.278 221.378 168.673 221.297 167.916C220.875 168.723 220.22 169.347 219.331 169.783C218.436 170.197 217.477 170.412 216.458 170.412ZM217.44 168.749C218.145 168.749 218.789 168.584 219.381 168.245C219.966 167.892 220.426 167.413 220.766 166.808C221.12 166.203 221.297 165.535 221.297 164.792V163.053C219.16 163.205 217.648 163.55 216.76 164.085C215.884 164.627 215.45 165.485 215.45 166.656C215.45 168.055 216.111 168.749 217.44 168.749ZM233.295 170.563C232.287 170.563 231.417 170.192 230.7 169.455C229.995 168.716 229.641 167.665 229.641 166.303V157.281L227.851 157.357C227.732 157.357 227.632 157.299 227.549 157.18C227.461 157.067 227.424 156.941 227.424 156.802C227.424 156.618 227.454 156.462 227.524 156.323C227.606 156.191 227.714 156.115 227.851 156.096C228.57 155.946 229.125 155.718 229.516 155.415C229.919 155.101 230.208 154.754 230.398 154.383C230.58 153.997 230.806 153.412 231.077 152.618C231.179 152.366 231.406 152.241 231.758 152.241C231.89 152.241 232.022 152.278 232.161 152.341C232.313 152.41 232.389 152.518 232.389 152.668L232.187 156.147L235.766 155.946H235.842C236.094 155.946 236.22 156.141 236.22 156.525C236.22 156.746 236.182 156.954 236.118 157.156C236.049 157.344 235.968 157.431 235.866 157.431L232.439 157.357V166.656C232.439 167.331 232.571 167.892 232.842 168.345C233.106 168.799 233.561 169.026 234.203 169.026C234.839 169.026 235.4 168.913 235.892 168.673C236.157 168.573 236.32 168.521 236.371 168.521C236.521 168.521 236.636 168.584 236.723 168.699C236.805 168.818 236.887 168.97 236.976 169.152C236.989 169.189 237 169.241 237 169.304C237 169.391 236.931 169.479 236.799 169.581C236.207 169.971 235.652 170.223 235.136 170.362C234.613 170.494 234.002 170.563 233.295 170.563Z" fill="white"/>
</g>
<defs>
<clipPath id="clip0_239_5">
<rect width="288.767" height="200" fill="white"/>
</clipPath>
</defs>
</svg>
