<svg width="303" height="74" viewBox="0 0 303 74" fill="none" xmlns="http://www.w3.org/2000/svg">
<g clip-path="url(#clip0_201_111)">
<mask id="mask0_201_111" style="mask-type:luminance" maskUnits="userSpaceOnUse" x="65" y="13" width="240" height="59">
<path d="M65.0972 13.101H303.105l-19 23l19 23H65.0956Z" fill="white"/>
</mask>
<g mask="url(#mask0_201_111)">
<path d="M65.0971 13.101H303.048V59.0276H65.0971V13.101Z" fill="#D36500"/>
</g>
<mask id="mask1_201_111" style="mask-type:luminance" maskUnits="userSpaceOnUse" x="0" y="0" width="88" height="75">
<path d="M0 0.113892H87.463V74.3224H0V0.113892Z" fill="white"/>
</mask>
<g mask="url(#mask1_201_111)">
<mask id="mask2_201_111" style="mask-type:luminance" maskUnits="userSpaceOnUse" x="0" y="0" width="88" height="75">
<path d="M87.4317 37.2214L65.5734 74.3224H21.8583L0 37.2214L21.8583 0.115479H65.5717L87.4317 37.2214Z" fill="white"/>
</mask>
<g mask="url(#mask2_201_111)">
<path d="M0 0.113892H87.463V74.3224H0V0.113892Z" fill="#054976"/>
</g>
</g>
<mask id="mask3_201_111" style="mask-type:luminance" maskUnits="userSpaceOnUse" x="31" y="6" width="47" height="45">
<path d="M31.3062 6.50977H77.4417V50.4509H31.3062V6.50977Z" fill="white"/>
</mask>
<g mask="url(#mask3_201_111)">
<mask id="mask4_201_111" style="mask-type:luminance" maskUnits="userSpaceOnUse" x="14" y="1" width="71" height="82">
<path d="M43.1169 1.22058L84.7146 19.6694L55.9459 82.9674L14.3415 64.5203L43.1169 1.22058Z" fill="white"/>
</mask>
<g mask="url(#mask4_201_111)">
<mask id="mask5_201_111" style="mask-type:luminance" maskUnits="userSpaceOnUse" x="14" y="1" width="71" height="82">
<path d="M43.1169 1.22058L84.7146 19.6694L55.9459 82.9674L14.3415 64.5203L43.1169 1.22058Z" fill="white"/>
</mask>
<g mask="url(#mask5_201_111)">
<path d="M53.1382 16.4453C53.2865 16.5544 53.415 16.6683 53.5369 16.7887C53.794 17.0621 54.1482 17.4381 54.2191 17.8694C54.6519 17.8053 55.0882 17.7673 55.5257 17.7554C55.4548 17.731 55.384 17.705 55.3131 17.6741C55.3131 17.6659 55.2884 17.661 55.2884 17.6545C55.189 17.6017 55.1114 17.5161 55.0693 17.4126C55.0272 17.3091 55.0231 17.1943 55.0577 17.0882C54.4453 16.8012 53.8011 16.5855 53.1382 16.4453ZM52.868 17.9589C52.8877 18.024 52.9009 18.0793 52.9059 18.1379L52.9833 18.1184C52.9437 18.0661 52.9052 18.0129 52.868 17.9589ZM49.0519 16.7139C48.9988 16.6336 48.9675 16.5411 48.9613 16.4453C48.8904 16.4519 48.8262 16.4649 48.7619 16.4779C48.8575 16.5544 48.9547 16.6374 49.0519 16.7139ZM49.3485 16.9678C49.6368 17.2086 49.9202 17.4625 50.1888 17.731L50.2877 17.8254C50.5579 18.0923 50.8594 18.3918 51.0522 18.7417C51.2582 18.6587 51.4707 18.5757 51.6899 18.5057C51.6569 18.4618 51.6322 18.4162 51.5992 18.3722C51.4509 18.1314 51.3026 17.9019 51.0917 17.731C50.9318 17.605 50.7615 17.4923 50.5826 17.3941C50.2371 17.2118 49.8662 17.0807 49.4819 17.0052L49.3468 16.9678H49.3485ZM73.4708 28.3729C73.325 29.3235 73.1013 30.2607 72.8018 31.1754C73.2961 30.7246 73.7789 30.2478 74.1859 29.7074C74.2626 29.5952 74.3794 29.5157 74.5129 29.485C74.6464 29.4542 74.7868 29.4743 74.9059 29.5414C75.0278 29.6065 75.125 29.7074 75.1827 29.8279C75.1827 29.7904 75.1761 29.7514 75.1761 29.714C75.0308 26.8392 74.2906 24.0244 73.0012 21.4432C73.4378 22.9047 73.6635 24.4378 73.6569 25.9952C73.7274 25.966 73.8039 25.9537 73.8801 25.9594C73.9563 25.965 74.03 25.9885 74.0952 26.0278C74.3144 26.1466 74.4808 26.4265 74.3457 26.7194C74.0883 27.2876 73.7961 27.8398 73.4708 28.3729ZM48.9036 18.3722C49.1343 18.7352 49.3336 19.1355 49.3979 19.5489C49.5215 19.4789 49.65 19.4024 49.7917 19.3324C49.6476 19.1884 49.5101 19.038 49.3798 18.8816C49.2183 18.6961 49.0651 18.5187 48.9036 18.3722ZM46.3414 17.5976C46.7665 17.9784 47.1521 18.3788 47.48 18.7986L47.4866 18.8051C47.4371 18.722 47.3837 18.641 47.3268 18.5627C46.9972 18.1314 46.6825 17.8157 46.3414 17.5976ZM44.0561 17.705C43.4135 17.9849 42.9752 18.2827 42.7495 18.6082C43.5156 18.7482 44.262 19.0086 44.9508 19.2934C44.6685 18.9022 44.4067 18.497 44.1665 18.0793C44.1016 17.9644 44.0638 17.8364 44.0561 17.705ZM68.5474 38.289C68.2639 38.5946 67.967 38.8878 67.6577 39.1678C67.7565 39.1353 67.8455 39.1027 67.9296 39.0783C69.3251 38.595 70.7537 38.1311 72.1312 37.6787L72.3124 37.6152C72.3915 37.5897 72.4749 37.5799 72.5578 37.5866C72.6407 37.5933 72.7214 37.6163 72.7952 37.6543C72.9484 37.7357 73.0588 37.8821 73.1033 38.0546C74.4874 35.8478 75.2288 33.1658 75.1959 30.3373C75.1761 30.3747 75.1563 30.4138 75.13 30.4512C74.0244 31.9891 72.9369 33.0258 71.8099 33.6036C71.7324 33.7696 71.6484 33.9291 71.566 34.0869C71.6682 34.0234 71.7637 33.9665 71.8626 33.903C72.5431 33.4766 73.1297 33.0567 73.6635 32.619C73.7493 32.5419 73.8573 32.4931 73.9725 32.4794C74.0876 32.4657 74.2042 32.4877 74.3061 32.5425C74.4012 32.596 74.4819 32.6711 74.5415 32.7617C74.6012 32.8523 74.638 32.9557 74.6489 33.0632C74.6619 33.1678 74.6481 33.2739 74.6086 33.3717C74.5691 33.4696 74.5054 33.556 74.4231 33.6231C73.8312 34.1285 73.21 34.5997 72.5629 35.0341C72.6205 35.0471 72.6716 35.0666 72.7309 35.0992C72.9435 35.2131 73.0835 35.4296 73.0835 35.6574C73.0851 35.7591 73.0582 35.8592 73.0058 35.9467C72.9535 36.0343 72.8778 36.1059 72.787 36.1538L72.5118 36.3133C71.309 37.0049 69.943 37.7942 68.5474 38.289ZM64.5501 41.4804C64.415 41.5634 64.2799 41.6399 64.1382 41.7164C64.3623 41.7164 64.588 41.7164 64.8006 41.7099C65.4119 41.6904 65.9589 41.6904 66.4928 41.7034L66.6411 41.6773C66.7564 41.6594 66.8717 41.6399 66.9887 41.6139C68.8753 41.2331 70.3105 40.7432 71.5199 40.0694C71.9015 39.6774 72.2566 39.261 72.5826 38.8228C71.8675 39.0783 71.1541 39.3387 70.439 39.5991C69.7568 39.84 69.0747 40.0873 68.3926 40.3363C68.096 40.4389 67.7994 40.5593 67.4847 40.6927C66.5323 41.0801 65.547 41.4804 64.5501 41.4804ZM61.0241 43.0835C60.8767 43.133 60.7284 43.1797 60.5792 43.2234C61.3124 43.3439 61.9632 43.4008 62.5927 43.4073C62.8513 43.4138 63.1018 43.4138 63.3523 43.4073C63.203 43.3714 63.0586 43.3178 62.9222 43.2478C62.8831 43.2283 62.8461 43.2049 62.8118 43.1779C62.2136 43.2079 61.6156 43.1763 61.0241 43.0835ZM48.4851 43.0639C48.0946 43.0489 47.7036 43.0533 47.3136 43.077C45.4599 43.1844 44.1994 43.7702 43.3492 44.9143C43.2372 45.0563 43.1338 45.2046 43.0394 45.3586C43.4069 45.1747 43.8056 45.0283 44.1846 44.8883L44.6624 44.7174C44.7844 44.6653 44.9376 44.5889 45.1057 44.5059C45.7104 44.2211 46.4568 43.8581 47.0038 44.042C47.0302 44.0485 47.0565 44.0616 47.0747 44.0681C47.1476 44.1068 47.2064 44.1671 47.2427 44.2406C47.5327 43.9151 47.8359 43.6173 48.1572 43.3308C48.2396 43.2609 48.35 43.1713 48.4851 43.0639ZM45.0035 47.5264C45.0436 47.5461 45.0803 47.5719 45.1123 47.6029C45.1386 47.5459 45.1567 47.489 45.1897 47.432C45.1057 47.4499 45.0282 47.476 44.959 47.502L45.0035 47.5264ZM42.209 46.7941L41.7839 47.6354L41.5911 48.0228L41.7658 48.0033C41.9635 47.7754 42.2996 47.5899 42.7626 47.4499C43.0329 47.0496 43.542 46.7892 43.9984 46.5792C44.5933 46.3081 45.232 46.1429 45.885 46.091C46.0383 45.8225 46.2129 45.5621 46.3859 45.3147C46.1091 45.4482 45.8076 45.5556 45.5291 45.6565C45.3643 45.7216 45.2078 45.7785 45.0925 45.829C44.9112 45.9103 44.7201 46.008 44.5257 46.1024C43.8765 46.4279 43.1416 46.7892 42.4216 46.8347C42.3484 46.841 42.2749 46.8259 42.209 46.7941ZM33.0643 45.842C33.1533 45.899 33.2505 45.9559 33.3526 46.008C34.422 46.5857 35.8308 46.8787 36.9644 47.1065L37.0797 47.1326C37.8064 47.2855 38.5281 47.4125 39.2349 47.5199C39.3503 47.5394 39.4672 47.5524 39.5892 47.559L39.866 47.5834C39.9813 47.3669 40.0967 47.1391 40.2136 46.9096C41.2962 44.7614 42.5188 42.3202 45.1633 41.6708C47.2938 41.1501 49.4638 41.3974 51.5037 41.7034C51.8579 41.6773 52.1792 41.7294 52.4626 41.8499L52.919 41.9133C53.6341 42.0207 54.3608 42.0923 55.0891 42.1168C55.1882 42.0956 55.2906 42.0934 55.3906 42.1102L55.501 42.1363C59.1374 42.1998 62.3735 41.1696 65.1285 39.0848C65.4316 38.8553 65.7348 38.608 66.0298 38.3476C66.0229 38.2695 66.0365 38.191 66.0695 38.1197C66.1024 38.0484 66.1534 37.9868 66.2176 37.9407C66.4153 37.8056 66.6345 37.6803 66.8866 37.5452C68.816 35.6149 70.2788 33.2788 71.1656 30.7116C71.0804 30.7176 70.9953 30.6978 70.9218 30.6546C70.8723 30.63 70.8283 30.5959 70.7923 30.5543C70.7563 30.5127 70.7291 30.4644 70.7122 30.4123C70.6953 30.3601 70.6891 30.3052 70.694 30.2507C70.6989 30.1962 70.7147 30.1432 70.7405 30.0948C70.9926 29.5984 71.3073 29.0972 71.7654 28.4608C72.5695 24.2652 71.566 20.3105 68.9462 17.3111C66.8622 14.9386 64.3691 12.9495 61.5826 11.436C58.5261 9.7907 55.3263 8.89397 52.3341 8.84352C49.9911 8.80446 42.1513 9.11042 38.9136 14.621C40.2268 15.6007 41.1479 16.5039 41.8548 17.5016C42.3243 16.9612 43.1235 16.4714 44.2241 16.058C46.058 15.3647 48.1127 14.9025 50.1526 14.7105C52.3293 14.5187 54.5148 14.9678 56.4336 16.001C58.513 17.1256 60.1343 18.8751 61.0092 20.9273C62.741 25.009 61.988 30.7051 57.7204 33.1593C54.6705 34.9137 51.123 35.1041 47.6925 35.2831C46.7336 35.3319 45.7433 35.3905 44.7909 35.4735C41.7526 35.7534 39.2547 36.8145 37.3697 38.6259C36.2229 39.726 35.3167 40.9092 34.6675 42.1412C34.2869 42.8475 33.9837 43.6043 33.6954 44.335C33.4943 44.8313 33.29 45.3391 33.0643 45.842ZM33.3329 47.432C32.8341 47.1645 32.3751 46.8305 31.9686 46.4393C31.9124 46.3832 31.8681 46.3166 31.8384 46.2434C31.8087 46.1701 31.7941 46.0918 31.7956 46.0129C31.6869 45.8638 31.6345 45.6819 31.6473 45.4986C31.8664 42.4602 33.9969 39.713 34.8982 38.678C36.2361 37.1384 38.477 35.1366 41.5532 34.2969C43.4069 33.7956 45.3429 33.6996 47.2164 33.6101L48.4011 33.5531C53.2997 33.2667 58.2048 32.6255 59.7158 28.2395C60.1647 26.9479 60.3167 25.5738 60.1608 24.2169C60.0049 22.8601 59.545 21.5545 58.8145 20.3952C58.6794 20.3105 58.5574 20.2292 58.4289 20.1462C58.1785 19.9867 57.9396 19.8353 57.6875 19.7002C57.3142 19.4839 56.9007 19.3438 56.4715 19.2885C55.4812 19.1664 54.4118 19.2625 53.2997 19.5814C52.405 19.8337 51.5416 20.2227 50.7045 20.5905C50.1707 20.833 49.6171 21.0803 49.0568 21.2968C49.1304 21.3883 49.1913 21.489 49.2381 21.5962C49.2641 21.66 49.2768 21.7283 49.2757 21.7971C49.2746 21.8658 49.2595 21.9336 49.2315 21.9966C49.1693 22.1275 49.0583 22.2295 48.9217 22.2814C48.2659 22.5174 47.5327 22.1935 46.8951 21.8566C46.7309 21.7623 46.5661 21.669 46.4007 21.5767C46.2574 21.4937 46.1223 21.4107 45.9938 21.3407L45.7812 21.2333C45.0991 20.9078 44.384 20.6165 43.6886 20.3301C43.1037 20.0892 42.4924 19.8418 41.9009 19.5668C41.8912 19.5657 41.882 19.5617 41.8745 19.5554C41.8121 19.5395 41.7515 19.5177 41.6933 19.4903C41.618 19.4476 41.551 19.392 41.4956 19.3259C41.462 19.314 41.4295 19.2993 41.3983 19.282C41.2907 19.2274 41.2015 19.1432 41.1413 19.0395C40.1428 17.4885 38.6632 16.377 37.3368 15.4917C37.0155 15.2833 36.9644 14.8244 37.1061 14.5136C39.6024 8.95093 47.3136 6.65623 53.6407 7.26652C56.4978 7.54644 59.5164 8.50664 62.3735 10.0446C62.5416 10.1341 62.7031 10.2236 62.8629 10.318C63.3852 10.5589 63.9125 10.8258 64.4216 11.0992C67.0793 12.5313 69.3515 14.2841 71.1788 16.307C74.8219 20.3301 76.8683 25.5428 76.7975 30.5912C76.7085 36.3946 74.0886 41.22 69.7832 43.4903C67.5753 44.6458 64.9999 45.1878 62.3356 45.0478C59.7421 44.9078 57.7468 44.5384 56.0595 43.8972C55.758 43.9037 55.4878 43.8972 55.2308 43.8842C54.1037 43.8337 52.9701 43.6482 51.876 43.4708C51.5877 43.4269 51.2911 43.3813 50.9945 43.3308C50.866 43.3634 50.7688 43.3959 50.6732 43.4334C49.9449 43.7426 49.2513 44.2471 48.5938 44.9257C47.6396 45.9262 46.7844 47.0145 46.0399 48.1758C46.1421 48.2392 46.2327 48.3027 46.3151 48.3792C46.3802 48.4351 46.4295 48.5069 46.4581 48.5873C46.4867 48.6678 46.4936 48.7542 46.4781 48.8381C46.4627 48.922 46.4254 49.0005 46.3699 49.0658C46.3145 49.1312 46.2428 49.1811 46.1618 49.2108C45.5687 49.4273 44.8997 49.3508 44.2554 49.2808C43.9407 49.2482 43.6458 49.2173 43.3673 49.2173C42.5105 49.2238 41.5845 49.2369 40.6717 49.2629C40.5522 49.2976 40.427 49.3087 40.3032 49.2956C40.1793 49.2825 40.0593 49.2454 39.95 49.1864C39.95 49.1799 39.9434 49.1799 39.9368 49.1799C39.6389 49.1595 39.3436 49.1105 39.0553 49.0334C38.9268 49.0074 38.7983 48.9765 38.6698 48.9521C37.8201 48.8078 36.9764 48.6314 36.1405 48.4231C35.2574 48.2002 34.2342 47.9137 33.3329 47.4304" fill="white"/>
</g>
</g>
</g>
<mask id="mask6_201_111" style="mask-type:luminance" maskUnits="userSpaceOnUse" x="21" y="53" width="21" height="19">
<path d="M21.42 53.7059H41.1924V71.6079H21.42V53.7059Z" fill="white"/>
</mask>
<g mask="url(#mask6_201_111)">
<mask id="mask7_201_111" style="mask-type:luminance" maskUnits="userSpaceOnUse" x="14" y="1" width="71" height="82">
<path d="M43.1169 1.22058L84.7147 19.6694L55.9459 82.9674L14.3416 64.5203L43.1169 1.22058Z" fill="white"/>
</mask>
<g mask="url(#mask7_201_111)">
<mask id="mask8_201_111" style="mask-type:luminance" maskUnits="userSpaceOnUse" x="14" y="1" width="71" height="82">
<path d="M43.1169 1.22058L84.7147 19.6694L55.9459 82.9674L14.3416 64.5203L43.1169 1.22058Z" fill="white"/>
</mask>
<g mask="url(#mask8_201_111)">
<path d="M31.0937 57.2977C32.0856 57.8315 33.0182 58.4857 33.9195 59.122C34.2095 59.3255 34.4929 59.5289 34.7763 59.7193C35.1552 59.5989 35.5342 59.4589 35.9082 59.3255C36.2114 59.2115 36.5261 59.0976 36.8408 58.9951L37.1506 58.8877C37.3368 58.8226 37.5362 58.7542 37.7487 58.6908C37.2989 58.5508 36.8474 58.4173 36.4108 58.2839C35.1421 57.9014 33.8289 57.5076 32.5881 56.9982C32.0556 56.7941 31.5352 56.5605 31.0294 56.2984C30.83 56.191 30.5022 56.2805 30.2122 56.3635C30.1034 56.3879 29.9996 56.4205 29.909 56.44C29.7294 56.4725 29.5547 56.51 29.3751 56.5474C29.9222 56.7264 30.489 56.9738 31.0937 57.2977ZM34.801 61.9961C34.7631 62.123 34.7236 62.25 34.6791 62.3834L34.7235 62.3639C35.2838 62.11 35.8819 61.9001 36.5574 61.7227C36.7721 61.2938 37.0154 60.8795 37.2857 60.4826C36.7453 61.1954 35.8753 61.5437 35.175 61.8301C35.0514 61.8806 34.9295 61.9391 34.801 61.9961ZM34.9691 64.9955C34.8339 65.0785 34.7054 65.1615 34.5687 65.2445C34.4088 65.3389 34.2474 65.4398 34.0809 65.5374C34.1863 65.5258 34.2913 65.5106 34.3957 65.4919L34.6527 65.4593C34.6988 65.4544 34.7367 65.4544 34.7812 65.4544C34.8405 65.308 34.8966 65.155 34.9691 64.9955ZM34.3874 66.7255C34.1115 66.8043 33.8407 66.9 33.5768 67.0119C33.4415 67.0733 33.3105 67.1434 33.1846 67.2219L32.921 67.3732C33.1298 67.3419 33.3375 67.3039 33.5438 67.2593C33.6977 67.2211 33.8603 67.239 34.0019 67.3097C34.1238 67.3797 34.221 67.4888 34.2787 67.6092C34.2882 67.312 34.3246 67.0163 34.3874 66.7255ZM23.9081 65.8548C24.1338 66.1022 24.4304 66.3186 24.8176 66.5286C25.4997 66.8964 26.2972 67.1323 27.0057 67.3488L27.1919 67.3992C28.3381 67.7529 29.5025 68.0463 30.6801 68.2781C30.6975 68.1348 30.7558 67.9993 30.8482 67.8875C31.1316 67.1323 31.4133 66.3821 31.705 65.6318C32.0955 64.6212 32.4959 63.5845 32.8682 62.5494C32.836 62.5482 32.804 62.5438 32.7727 62.5364C32.7207 62.5311 32.6703 62.5156 32.6244 62.4908C32.5264 62.4344 32.4527 62.3445 32.4172 62.2381C32.3817 62.1316 32.3868 62.016 32.4316 61.9131C32.6178 61.4297 33.0544 61.1629 33.4037 61.0034C33.4037 61.0034 33.4795 60.769 33.5125 60.686C32.5848 59.9488 31.387 59.052 30.1265 58.3718C28.9879 57.755 27.9317 57.4002 26.986 57.2977C26.9151 58.1814 26.5032 59.1611 26.1687 59.9618C26.0781 60.1717 25.9941 60.3687 25.9232 60.5477C25.8079 60.8455 25.6859 61.1433 25.5706 61.4428C25.2987 62.1035 25.0236 62.7903 24.811 63.4771C24.7451 63.687 24.6957 63.91 24.6495 64.1508C24.5408 64.6537 24.4238 65.1745 24.1404 65.6123C24.0766 65.7057 23.9906 65.7823 23.8899 65.8353L23.9081 65.8548ZM24.063 68.0356C23.31 67.6287 22.8865 67.2218 22.7778 66.7824C22.7452 66.6514 22.7417 66.515 22.7673 66.3824C22.7928 66.2499 22.847 66.1243 22.926 66.0143C22.9873 65.916 23.0729 65.8348 23.1748 65.7783C23.1012 65.7054 23.0464 65.6161 23.015 65.5179C22.6278 64.2843 23.3808 62.6634 23.9806 61.3663C24.1025 61.0994 24.2178 60.852 24.3151 60.6225C24.4057 60.4061 24.4963 60.1961 24.5919 59.9797C24.8687 59.332 25.1587 58.6582 25.3959 57.9779C25.4561 57.791 25.51 57.6021 25.5574 57.4116C25.6019 57.2342 25.653 57.0503 25.7107 56.8648C25.6938 56.782 25.7021 56.6962 25.7343 56.6181C25.7665 56.54 25.8213 56.4729 25.8919 56.4253C25.9562 56.287 26.0336 56.1649 26.1226 56.0575C26.1855 55.9782 26.277 55.9259 26.378 55.9116C26.4791 55.8974 26.5818 55.9222 26.6647 55.981C26.7086 55.9436 26.7588 55.9139 26.813 55.8932C27.533 55.5807 28.2926 55.3773 29.0324 55.1803C29.4707 55.0664 29.9271 54.946 30.3588 54.806C31.125 54.557 31.6967 54.85 32.2569 55.1364C32.4497 55.2324 32.6491 55.3333 32.8617 55.4163C33.9442 55.8476 35.0762 56.191 36.1768 56.5279C37.2775 56.8648 38.4177 57.2147 39.5101 57.6476C39.5431 57.6606 39.576 57.6736 39.609 57.6915C39.7449 57.7605 39.8536 57.8726 39.9175 58.0098C39.9814 58.147 39.9969 58.3013 39.9616 58.4483C39.9108 58.6501 39.7902 58.828 39.6205 58.9511C39.6452 59 39.665 59.0651 39.6782 59.122C39.6886 59.1945 39.6819 59.2685 39.6584 59.3379C39.635 59.4074 39.5955 59.4706 39.5431 59.5224C39.3503 59.7193 39.0982 59.8723 38.7522 59.9943C38.7522 60.0187 38.7456 60.0432 38.739 60.0692C38.4869 61.1254 37.9596 62.1491 37.4505 63.1337C37.1687 63.6805 36.8787 64.2404 36.6464 64.7872C36.3185 65.5553 35.9132 66.522 35.7517 67.4822L35.7319 67.5897C35.8802 67.6157 36.0153 67.6547 36.1323 67.7231C36.2279 67.7687 36.3136 67.8321 36.3828 67.9086C36.466 67.99 36.5169 68.0981 36.5262 68.2134C36.5356 68.3286 36.5028 68.4434 36.4339 68.5368C36.1636 68.9307 35.7253 69.0088 35.3464 69.0706C35.2558 69.0902 35.1651 69.1032 35.0762 69.1227C34.6132 69.2301 34.1436 69.3571 33.641 69.5166C32.7463 69.803 31.8384 70.0129 30.8729 70.1643C30.7759 70.1809 30.676 70.168 30.5866 70.1273C30.4971 70.0866 30.4223 70.0201 30.372 69.9364C29.5729 69.79 25.9891 69.0706 24.063 68.0356Z" fill="white"/>
</g>
</g>
</g>
<mask id="mask9_201_111" style="mask-type:luminance" maskUnits="userSpaceOnUse" x="52" y="16" width="5" height="4">
<path d="M52.7263 16.2745H56.0217V19.5294H52.7263V16.2745Z" fill="white"/>
</mask>
<g mask="url(#mask9_201_111)">
<mask id="mask10_201_111" style="mask-type:luminance" maskUnits="userSpaceOnUse" x="14" y="1" width="71" height="82">
<path d="M43.1169 1.22058L84.7147 19.6694L55.9459 82.9674L14.3416 64.5203L43.1169 1.22058Z" fill="white"/>
</mask>
<g mask="url(#mask10_201_111)">
<mask id="mask11_201_111" style="mask-type:luminance" maskUnits="userSpaceOnUse" x="14" y="1" width="71" height="82">
<path d="M43.1169 1.22058L84.7147 19.6694L55.9459 82.9674L14.3416 64.5203L43.1169 1.22058Z" fill="white"/>
</mask>
<g mask="url(#mask11_201_111)">
<path d="M54.5025 17.9214C54.4228 17.8802 54.3629 17.8093 54.3361 17.7245C54.3186 17.672 54.3032 17.6188 54.29 17.565C54.2834 17.5211 54.2718 17.4836 54.257 17.4446H54.2125C54.1203 17.4417 54.0301 17.4178 53.9489 17.3746C53.8482 17.3196 53.77 17.2317 53.7279 17.1259C53.6858 17.0202 53.6824 16.9032 53.7182 16.7952C53.7825 16.5609 54.0066 16.4209 54.2652 16.4339C54.4004 16.4453 54.6063 16.4665 54.7859 16.5674C54.8924 16.622 54.9849 16.6999 55.0561 16.7952C55.2819 17.1077 55.1599 17.552 54.954 17.8319C54.9027 17.8987 54.8285 17.9446 54.7454 17.9611C54.6622 17.9776 54.5759 17.9635 54.5025 17.9214Z" fill="white"/>
</g>
</g>
</g>
<mask id="mask12_201_111" style="mask-type:luminance" maskUnits="userSpaceOnUse" x="16" y="9" width="47" height="65">
<path d="M16.477 9.76465H62.6125V73.2352H16.477V9.76465Z" fill="white"/>
</mask>
<g mask="url(#mask12_201_111)">
<mask id="mask13_201_111" style="mask-type:luminance" maskUnits="userSpaceOnUse" x="3" y="9" width="73" height="66">
<path d="M61.3437 74.3028L3.33987 57.7044L17.403 9.77112L75.4085 26.3711L61.3437 74.3028Z" fill="white"/>
</mask>
<g mask="url(#mask13_201_111)">
<mask id="mask14_201_111" style="mask-type:luminance" maskUnits="userSpaceOnUse" x="3" y="9" width="73" height="66">
<path d="M3.3992 57.7239L61.4031 74.3223L75.4579 26.3825L17.4557 9.78247L3.3992 57.7239Z" fill="white"/>
</mask>
<g mask="url(#mask14_201_111)">
<path d="M62.5218 69.8207C62.3291 70.8379 61.7441 71.6597 60.772 72.2749C59.1754 73.279 57.3794 73.17 55.5719 71.9641C54.7201 71.3849 53.9679 70.6744 53.3442 69.8598L33.501 40.6356C32.9984 39.9293 31.5699 36.9039 30.5269 34.6971C30.1281 33.8508 29.787 33.1217 29.6009 32.7458C29.0604 31.6586 25.7584 27.2222 24.7599 25.886C24.5809 25.6445 24.4861 25.3521 24.4897 25.0528C24.4932 24.7535 24.595 24.4634 24.7797 24.226C24.8127 24.1821 24.8505 24.1382 24.8884 24.0942L20.293 20.4194C19.6751 19.9312 19.2714 19.2314 19.1413 18.4551L17.6485 9.23071L25.7897 14.8308C26.3895 15.2441 26.8327 15.8561 27.0387 16.5477L28.5842 21.7605C28.6617 21.7344 28.7325 21.723 28.7968 21.7035C29.1309 21.6273 29.4817 21.6772 29.7805 21.8435C29.9814 21.9473 30.1522 22.1003 30.2764 22.2878C31.1711 23.6223 33.4499 26.9537 35.3876 29.0775C37.8772 31.8116 41.115 35.3839 41.1479 35.4164L41.1594 35.4343L61.0158 64.8179C61.1444 64.9839 62.9667 67.4951 62.5218 69.8207ZM55.8932 71.5181C56.0744 71.6402 56.2474 71.7411 56.427 71.8371C57.8556 72.6118 59.2133 72.6053 60.4754 71.8111C61.3124 71.2838 61.8216 70.584 61.9814 69.7263C62.2121 68.5057 61.7178 67.1826 61.2548 66.2745C59.8311 69.0265 55.964 70.1136 54.5733 70.4245C54.921 70.7744 55.3725 71.1682 55.8932 71.5181ZM54.1351 69.9607C55.0298 69.7817 59.6845 68.7075 60.9203 65.6756C60.8113 65.4913 60.6953 65.311 60.5726 65.1353H60.566C58.6151 68.0289 54.9589 69.129 53.7182 69.4269L53.794 69.5473C53.8006 69.5473 53.9242 69.7133 54.1351 69.9607ZM40.4592 35.4799C40.3241 35.3269 40.1428 35.13 39.9237 34.8891C35.5672 36.344 33.7975 38.5688 33.3461 39.2425C33.4878 39.529 33.6229 39.7715 33.7399 39.9684C34.3578 39.1091 36.2361 36.9869 40.4592 35.4799ZM34.0612 40.4696L53.3887 68.9435C54.3031 68.7336 58.3317 67.6595 60.2315 64.634L40.8299 35.9307C36.2608 37.5142 34.4451 39.8854 34.0579 40.4713L34.0612 40.4696ZM26.5114 16.7007C26.3408 16.1243 25.9742 15.6237 25.4734 15.2832L18.9996 10.8256L22.7975 16.6877C23.0154 16.6542 23.2382 16.6738 23.4467 16.7447C23.6552 16.8156 23.8429 16.9357 23.9937 17.0946C24.4057 17.5079 24.4254 17.9848 24.0531 18.4112C23.9245 18.5576 23.5307 18.8555 23.2786 18.9124C23.0414 18.9629 22.5916 18.9775 22.2241 18.4616C21.8188 17.9018 22.0577 17.3175 22.3213 16.9741L18.5102 11.0746L19.6883 18.3656C19.7921 19.0084 20.1332 19.5862 20.6407 19.9996L25.2559 23.6874C26.0366 22.8873 26.9982 22.2816 28.0619 21.9199L26.5114 16.7007ZM22.6756 18.1426C22.8618 18.4112 23.0414 18.403 23.1584 18.3786C23.336 18.2978 23.4973 18.1859 23.6345 18.0482C23.7894 17.8692 23.8405 17.7179 23.6016 17.4754C23.5038 17.3709 23.3796 17.2941 23.2417 17.2529C23.1038 17.2117 22.9573 17.2076 22.8173 17.241C22.702 17.368 22.3988 17.7683 22.6756 18.1426ZM28.9253 22.2373C27.4545 22.5712 26.1439 23.3925 25.2114 24.5646C25.1271 24.6772 25.0725 24.8087 25.0524 24.9473C25.0323 25.0859 25.0473 25.2273 25.0961 25.3588C25.7057 24.5515 27.3864 22.6246 29.6519 22.4098C29.5532 22.3265 29.4358 22.2675 29.3096 22.2375C29.1833 22.2075 29.0516 22.2074 28.9253 22.2373ZM34.9756 29.4404C33.1665 27.4565 31.0673 24.449 30.0507 22.9371C27.6829 22.9501 25.8672 25.2318 25.4239 25.8486C26.8014 27.7039 29.5761 31.4682 30.0968 32.5049C30.283 32.8857 30.6307 33.6164 31.0294 34.4692C31.6341 35.7468 32.4332 37.4312 33.0627 38.6843C33.7382 37.7681 35.5738 35.8102 39.5249 34.4432L34.9756 29.4404Z" fill="white"/>
</g>
</g>
</g>
<mask id="mask15_201_111" style="mask-type:luminance" maskUnits="userSpaceOnUse" x="41" y="47" width="14" height="22">
<path d="M41.1924 47.196H54.374V68.3529H41.1924V47.196Z" fill="white"/>
</mask>
<g mask="url(#mask15_201_111)">
<mask id="mask16_201_111" style="mask-type:luminance" maskUnits="userSpaceOnUse" x="3" y="9" width="73" height="66">
<path d="M61.3437 74.3029L3.33987 57.7046L17.403 9.77124L75.4085 26.3712L61.3437 74.3029Z" fill="white"/>
</mask>
<g mask="url(#mask16_201_111)">
<mask id="mask17_201_111" style="mask-type:luminance" maskUnits="userSpaceOnUse" x="3" y="9" width="73" height="66">
<path d="M3.3992 57.7241L61.4031 74.3224L75.4579 26.3826L17.4557 9.78259L3.3992 57.7241Z" fill="white"/>
</mask>
<g mask="url(#mask17_201_111)">
<path d="M41.6554 48.7226L53.7627 67.2267L54.2257 66.9289L42.1201 48.4297L41.6554 48.7226Z" fill="white"/>
</g>
</g>
</g>
<mask id="mask18_201_111" style="mask-type:luminance" maskUnits="userSpaceOnUse" x="36" y="39" width="6" height="9">
<path d="M36.2493 39.0588H41.1924V47.1961H36.2493V39.0588Z" fill="white"/>
</mask>
<g mask="url(#mask18_201_111)">
<mask id="mask19_201_111" style="mask-type:luminance" maskUnits="userSpaceOnUse" x="3" y="9" width="73" height="66">
<path d="M61.3438 74.3029L3.3399 57.7046L17.403 9.77124L75.4085 26.3712L61.3438 74.3029Z" fill="white"/>
</mask>
<g mask="url(#mask19_201_111)">
<mask id="mask20_201_111" style="mask-type:luminance" maskUnits="userSpaceOnUse" x="3" y="9" width="73" height="66">
<path d="M3.39923 57.7241L61.4031 74.3224L75.4579 26.3826L17.4557 9.78259L3.39923 57.7241Z" fill="white"/>
</mask>
<g mask="url(#mask20_201_111)">
<path d="M36.48 40.7188L40.0984 46.3123L40.5614 46.0129L36.9447 40.4193L36.48 40.7188Z" fill="white"/>
</g>
</g>
</g>
<path d="M100.389 47.0219C98.6847 47.0369 97.0063 46.6075 95.5236 45.7769C94.062 44.9502 92.8971 43.7621 92.0222 42.2161C91.1605 40.6781 90.7354 38.8798 90.7354 36.8259C90.7354 34.7412 91.1473 32.9103 91.9711 31.3333C92.7702 29.7826 94.0152 28.4997 95.5499 27.6455C97.0938 26.7683 98.8964 26.324 100.956 26.324C102.739 26.324 104.329 26.6788 105.718 27.3916C107.122 28.1028 107.83 29.1981 107.83 30.6726C107.843 31.6067 107.56 32.3944 106.98 33.0372C106.395 33.685 105.616 34.0023 104.637 34.0023C104.31 34.0136 103.985 33.953 103.685 33.8249C103.454 33.7182 103.258 33.551 103.118 33.3416C102.996 33.1577 102.945 33.0112 102.965 32.9103C102.965 32.8582 103.106 32.7443 103.401 32.5523C103.691 32.37 103.948 32.1145 104.176 31.7906C104.393 31.4733 104.508 31.0729 104.508 30.5961C104.508 29.6684 104.187 28.9296 103.556 28.3827C102.918 27.8424 102.043 27.569 100.93 27.569C99.656 27.569 98.524 27.927 97.5321 28.6382C96.5534 29.3494 95.7806 30.3926 95.2154 31.7646C94.6618 33.1251 94.3916 34.7412 94.3916 36.6225C94.3916 38.2874 94.6799 39.7879 95.2649 41.1224C95.8646 42.4651 96.7082 43.5327 97.7891 44.3285C98.8669 45.1212 100.179 45.541 101.523 45.523C102.637 45.523 103.596 45.2936 104.406 44.8363C105.21 44.3643 105.932 43.6157 106.568 42.5985C106.672 42.413 106.814 42.3186 107.006 42.3186C107.207 42.3304 107.402 42.392 107.573 42.4976C107.914 42.7189 108.087 42.9484 108.087 43.1828C108.088 43.2397 108.077 43.2962 108.055 43.3489C108.033 43.4015 108 43.4491 107.959 43.4887C107.168 44.4733 106.42 45.2171 105.718 45.7265C105.009 46.2212 104.258 46.5516 103.454 46.7436C102.642 46.9275 101.625 47.0219 100.389 47.0219ZM110.373 46.5142C110.303 46.5127 110.234 46.4959 110.172 46.4649C110.109 46.4339 110.055 46.3896 110.012 46.3351C109.924 46.1995 109.879 46.0407 109.883 45.8795C109.896 45.6239 109.949 45.4726 110.038 45.4205C110.14 45.3701 110.328 45.344 110.605 45.344C111.132 45.344 111.511 45.2561 111.737 45.0641C111.953 44.9138 112.101 44.686 112.149 44.4294C112.2 44.1739 112.226 43.78 112.226 43.2332V28.1793C112.226 27.6585 112.206 27.2647 112.175 27.0108C112.136 26.7566 111.997 26.5279 111.788 26.3745C111.564 26.1906 111.178 26.0945 110.63 26.0945C110.373 26.0945 110.18 26.062 110.064 25.9936C109.941 25.9106 109.883 25.7332 109.883 25.4582C109.883 25.3443 109.923 25.2304 110.012 25.1278C110.054 25.0703 110.108 25.0225 110.171 24.9874C110.233 24.9523 110.303 24.9308 110.374 24.9244C111.692 24.7405 112.818 24.4687 113.745 24.1107C114.035 24.0098 114.273 23.9528 114.465 23.9333H114.569C114.891 23.9333 115.059 24.1302 115.059 24.5192V43.2348C115.059 43.78 115.072 44.1739 115.11 44.4294C115.168 44.6818 115.314 44.9063 115.522 45.0641C115.761 45.2561 116.146 45.344 116.68 45.344H116.886C117.041 45.344 117.156 45.3831 117.247 45.4466C117.329 45.497 117.382 45.6418 117.402 45.8778C117.402 46.0503 117.356 46.2033 117.273 46.3368C117.202 46.4507 117.079 46.5142 116.911 46.5142C115.813 46.4487 114.715 46.4145 113.615 46.4116C112.689 46.4116 111.608 46.4442 110.373 46.5142ZM125.582 46.7941C124.172 46.7941 123.045 46.3742 122.21 45.523C121.386 44.6768 120.974 43.5636 120.974 42.1917V36.4695C120.974 35.9488 120.954 35.5663 120.923 35.3254C120.877 35.0608 120.73 34.8238 120.511 34.6647C120.285 34.4792 119.905 34.3848 119.377 34.3848C119.12 34.3848 118.927 34.3522 118.81 34.2822C118.689 34.2009 118.631 34.0284 118.631 33.7745C118.631 33.641 118.664 33.5206 118.735 33.4181C118.78 33.3587 118.838 33.3097 118.905 33.2746C118.971 33.2395 119.045 33.219 119.12 33.2146C120.42 33.0307 121.547 32.7573 122.493 32.4009C122.783 32.3 123.02 32.2414 123.213 32.2219H123.317C123.638 32.2219 123.806 32.4204 123.806 32.8078V42.1656C123.806 43.0998 124.103 43.8191 124.708 44.3269C125.306 44.8363 126.001 45.0901 126.792 45.0901C127.771 45.0901 128.601 44.8542 129.29 44.3773C129.972 43.907 130.435 43.4301 130.68 42.9533V36.4712C130.68 35.9504 130.661 35.5679 130.628 35.3271C130.585 35.0678 130.448 34.8328 130.242 34.6663C130.016 34.4808 129.631 34.3864 129.084 34.3864C128.827 34.3864 128.632 34.3538 128.517 34.2839C128.395 34.2025 128.336 34.03 128.336 33.7761C128.332 33.6454 128.379 33.5181 128.466 33.4197C128.508 33.3624 128.562 33.3146 128.624 33.2796C128.686 33.2445 128.755 33.2229 128.827 33.2163C130.145 33.0324 131.272 32.7589 132.198 32.4025C132.488 32.3016 132.725 32.243 132.92 32.2235H133.022C133.345 32.2235 133.511 32.4221 133.511 32.8094V43.4904C133.511 44.6979 134.335 45.2952 135.983 45.2952C136.344 45.2952 136.523 45.4921 136.523 45.8811C136.523 46.174 136.344 46.3498 135.983 46.4133L130.962 46.7453C130.809 46.7453 130.718 46.6932 130.705 46.5923C130.683 46.4409 130.675 46.2878 130.68 46.135V44.405H130.603C129.997 44.9648 129.509 45.3977 129.135 45.7021C128.774 45.995 128.291 46.2489 127.693 46.4653C127.014 46.6956 126.3 46.8058 125.582 46.7941ZM139.733 46.8445C139.651 46.8487 139.569 46.8349 139.493 46.8039C139.417 46.7729 139.35 46.7257 139.295 46.6655C139.241 46.6075 139.2 46.5395 139.173 46.4654C139.146 46.3913 139.135 46.3127 139.14 46.2342V28.2053C139.14 27.6846 139.122 27.3021 139.09 27.0612C139.045 26.7966 138.897 26.5597 138.678 26.4005C138.451 26.215 138.072 26.1206 137.545 26.1206C137.286 26.1206 137.093 26.088 136.978 26.018C136.856 25.9367 136.797 25.7642 136.797 25.5103C136.797 25.3768 136.83 25.2548 136.901 25.1539C136.946 25.0945 137.004 25.0455 137.071 25.0104C137.137 24.9753 137.211 24.9548 137.286 24.9504C138.588 24.7665 139.713 24.4931 140.659 24.1367C140.949 24.0342 141.186 23.9772 141.381 23.9577H141.483C141.806 23.9577 141.972 24.1562 141.972 24.5436V33.851H142.076C142.652 33.2741 143.345 32.8233 144.109 32.5278C145.016 32.1596 145.998 32.0113 146.975 32.0954C147.951 32.1795 148.893 32.4935 149.721 33.0112C150.728 33.6366 151.539 34.5256 152.064 35.5793C152.644 36.686 152.939 37.9326 152.939 39.3176C152.939 40.6911 152.605 41.9557 151.936 43.1063C151.28 44.2455 150.403 45.1406 149.309 45.8013C148.251 46.4507 147.029 46.7946 145.783 46.7941C143.93 46.7941 142.32 46.2847 140.969 45.2675H140.814C140.723 45.44 140.633 45.6679 140.53 45.9543C140.453 46.1901 140.341 46.4128 140.196 46.6151C140.143 46.6869 140.073 46.7452 139.992 46.7851C139.912 46.825 139.823 46.8454 139.733 46.8445ZM145.5 45.7265C146.769 45.7265 147.79 45.1601 148.565 44.0225C149.349 42.8898 149.748 41.3649 149.748 39.4445C149.748 37.8366 149.369 36.463 148.614 35.3254C147.874 34.1944 146.769 33.6215 145.294 33.6215C143.967 33.6215 142.86 34.0935 141.972 35.0211V43.1828C142.038 43.5083 142.218 43.8696 142.513 44.2764C142.822 44.6703 143.221 45.0088 143.724 45.2936C144.238 45.5865 144.829 45.7265 145.5 45.7265ZM168.994 46.7941C167.841 46.7941 166.76 46.4767 165.748 45.8534C164.752 45.2301 163.954 44.3529 163.356 43.2332C162.751 42.1021 162.455 40.8311 162.455 39.4201C162.449 38.1555 162.769 36.9104 163.386 35.8023C164.003 34.6943 164.896 33.76 165.981 33.0877C167.085 32.409 168.363 32.0561 169.663 32.0705C170.312 32.0705 170.957 32.147 171.594 32.2984C172.244 32.4514 172.81 32.6678 173.293 32.9347H173.371V28.2053C173.371 27.6846 173.351 27.3021 173.32 27.0612C173.3 26.8074 173.171 26.5893 172.932 26.4005C172.708 26.215 172.323 26.1206 171.774 26.1206C171.58 26.131 171.385 26.0959 171.207 26.018C171.085 25.9367 171.028 25.7642 171.028 25.5103C171.024 25.3798 171.07 25.2526 171.156 25.1539C171.202 25.0943 171.26 25.0452 171.327 25.0101C171.394 24.9749 171.468 24.9546 171.543 24.9504C172.843 24.7665 173.969 24.4931 174.915 24.1367C175.205 24.0342 175.442 23.9772 175.636 23.9577H175.714C176.055 23.9577 176.228 24.1562 176.228 24.5436V43.5636C176.228 44.7842 177.033 45.3945 178.65 45.3945C179.009 45.3945 179.189 45.5605 179.189 45.8778C179.189 46.1708 179.007 46.3498 178.648 46.4116L173.679 46.7436C173.537 46.7436 173.455 46.6916 173.422 46.5907C173.399 46.4393 173.391 46.2862 173.397 46.1333V44.9128H173.32C172.766 45.4596 172.095 45.9039 171.309 46.2603C170.587 46.6047 169.796 46.787 168.994 46.7941ZM170.075 45.2431C170.795 45.2431 171.413 45.1097 171.929 44.8363C172.443 44.5498 172.919 44.169 173.371 43.6922V35.5549C173.178 34.9625 172.784 34.4222 172.186 33.9275C171.601 33.4376 170.86 33.1886 169.971 33.1886C169.161 33.1886 168.428 33.4441 167.759 33.9535C167.101 34.4482 166.587 35.1741 166.213 36.1392C165.852 37.1059 165.673 38.25 165.673 39.5731C165.673 41.1485 166.047 42.4895 166.806 43.5896C167.559 44.6963 168.647 45.2431 170.075 45.2431ZM187.87 46.7941C186.307 46.7941 184.975 46.4637 183.881 45.8013C182.801 45.1622 181.933 44.2256 181.383 43.1063C180.83 41.9752 180.56 40.7156 180.56 39.3436C180.56 38.1409 180.843 36.9789 181.41 35.8609C181.96 34.7446 182.805 33.7956 183.855 33.1137C184.916 32.4204 186.134 32.0705 187.511 32.0705C189.365 32.0705 190.787 32.5425 191.784 33.4701C192.795 34.4043 193.367 35.6672 193.509 37.2572C193.509 37.9375 193.316 38.4029 192.944 38.6568C192.565 38.8977 192.021 39.0132 191.321 39.0132H183.725C183.725 40.9336 184.125 42.4455 184.936 43.5636C185.74 44.6833 186.982 45.2431 188.669 45.2431C189.558 45.2431 190.317 45.0576 190.935 44.6833C191.566 44.2959 192.171 43.6531 192.738 42.7499C192.84 42.649 192.944 42.5985 193.046 42.5985C193.173 42.5978 193.298 42.6328 193.407 42.6994C193.626 42.8394 193.741 43.0249 193.741 43.2593C193.741 43.3992 193.715 43.4871 193.664 43.5392C193.068 44.5348 192.226 45.3655 191.218 45.9543C190.197 46.5205 189.042 46.8102 187.87 46.7941ZM188.824 37.8431C189.885 37.8431 190.452 37.4102 190.521 36.546C190.521 35.5988 190.253 34.7916 189.724 34.1309C189.21 33.4685 188.47 33.1381 187.511 33.1381C186.442 33.1381 185.567 33.5645 184.885 34.4092C184.196 35.2424 183.81 36.3865 183.726 37.8431H188.824ZM209.73 46.7941C208.577 46.7941 207.496 46.4767 206.484 45.8534C205.488 45.2301 204.69 44.3529 204.092 43.2332C203.487 42.1021 203.191 40.8311 203.191 39.4201C203.185 38.1555 203.505 36.9104 204.122 35.8023C204.739 34.6943 205.632 33.76 206.717 33.0877C207.821 32.409 209.099 32.0561 210.399 32.0705C211.049 32.0705 211.693 32.147 212.33 32.2984C212.98 32.4514 213.546 32.6678 214.029 32.9347H214.107V28.2053C214.107 27.6846 214.087 27.3021 214.056 27.0612C214.036 26.8074 213.907 26.5893 213.668 26.4005C213.444 26.215 213.059 26.1206 212.51 26.1206C212.316 26.131 212.121 26.0959 211.943 26.018C211.821 25.9367 211.764 25.7642 211.764 25.5103C211.76 25.3798 211.806 25.2526 211.892 25.1539C211.938 25.0945 211.996 25.0455 212.062 25.0104C212.129 24.9753 212.202 24.9548 212.278 24.9504C213.579 24.7665 214.705 24.4931 215.651 24.1367C215.941 24.0342 216.178 23.9772 216.372 23.9577H216.45C216.791 23.9577 216.964 24.1562 216.964 24.5436V43.5636C216.964 44.7842 217.769 45.3945 219.384 45.3945C219.745 45.3945 219.925 45.5605 219.925 45.8778C219.925 46.1708 219.743 46.3498 219.384 46.4116L214.415 46.7436C214.273 46.7436 214.191 46.6916 214.158 46.5907C214.135 46.4393 214.126 46.2863 214.131 46.1333V44.9128H214.056C213.502 45.4596 212.831 45.9039 212.045 46.2603C211.323 46.6047 210.532 46.787 209.73 46.7941ZM210.811 45.2431C211.531 45.2431 212.149 45.1097 212.665 44.8363C213.179 44.5498 213.655 44.169 214.107 43.6922V35.5549C213.914 34.9625 213.52 34.4222 212.922 33.9275C212.337 33.4376 211.596 33.1886 210.707 33.1886C209.897 33.1886 209.164 33.4441 208.495 33.9535C207.837 34.4482 207.323 35.1741 206.949 36.1392C206.588 37.1059 206.409 38.25 206.409 39.5731C206.409 41.1485 206.783 42.4895 207.541 43.5896C208.295 44.6963 209.383 45.2431 210.811 45.2431ZM228.606 46.7941C227.043 46.7941 225.711 46.4637 224.616 45.8013C223.536 45.162 222.668 44.2254 222.119 43.1063C221.566 41.9752 221.296 40.7156 221.296 39.3436C221.296 38.1409 221.579 36.9789 222.144 35.8609C222.695 34.7444 223.54 33.7954 224.591 33.1137C225.652 32.4204 226.87 32.0705 228.247 32.0705C230.101 32.0705 231.523 32.5425 232.52 33.4701C233.531 34.4043 234.103 35.6672 234.245 37.2572C234.245 37.9375 234.052 38.4029 233.678 38.6568C233.299 38.8977 232.759 39.0132 232.057 39.0132H224.461C224.461 40.9336 224.861 42.4455 225.672 43.5636C226.476 44.6833 227.718 45.2431 229.405 45.2431C230.294 45.2431 231.053 45.0576 231.671 44.6833C232.302 44.2959 232.907 43.6531 233.472 42.7499C233.576 42.649 233.678 42.5985 233.782 42.5985C233.909 42.5978 234.034 42.6328 234.143 42.6994C234.362 42.8394 234.477 43.0249 234.477 43.2593C234.477 43.3992 234.451 43.4871 234.4 43.5392C233.804 44.5348 232.962 45.3655 231.954 45.9543C230.933 46.5205 229.778 46.8102 228.606 46.7941ZM229.559 37.8431C230.621 37.8431 231.188 37.4102 231.259 36.546C231.259 35.5988 230.989 34.7916 230.46 34.1309C229.946 33.4685 229.206 33.1381 228.247 33.1381C227.178 33.1381 226.303 33.5645 225.621 34.4092C224.932 35.2424 224.545 36.3865 224.462 37.8431H229.559ZM226.959 29.8849C226.851 29.8494 226.759 29.7766 226.702 29.6798C226.648 29.5509 226.621 29.4124 226.624 29.2729C226.624 29.159 226.664 29.0191 226.753 28.8661L229.096 24.6445C229.187 24.4244 229.345 24.2378 229.548 24.1104C229.751 23.9829 229.989 23.9211 230.229 23.9333C230.364 23.9333 230.564 23.9837 230.822 24.0863C231.04 24.2262 231.22 24.3906 231.361 24.594C231.516 24.7975 231.592 25.0139 231.592 25.2287C231.589 25.4922 231.489 25.7456 231.31 25.9416L228.117 29.6033C227.893 29.8588 227.641 29.9858 227.371 29.9858C227.227 29.9858 227.085 29.9506 226.959 29.8832V29.8849ZM238.717 46.8445C238.635 46.8487 238.553 46.8349 238.477 46.8039C238.401 46.7729 238.333 46.7257 238.278 46.6655C238.225 46.6075 238.183 46.5395 238.157 46.4654C238.13 46.3913 238.119 46.3127 238.123 46.2342V28.2053C238.123 27.6846 238.105 27.3021 238.072 27.0612C238.027 26.7966 237.879 26.5597 237.66 26.4005C237.435 26.215 237.056 26.1206 236.527 26.1206C236.27 26.1206 236.077 26.088 235.962 26.018C235.84 25.9367 235.78 25.7642 235.78 25.5103C235.78 25.3768 235.813 25.2548 235.884 25.1539C235.93 25.0945 235.988 25.0455 236.054 25.0104C236.121 24.9753 236.194 24.9548 236.27 24.9504C237.571 24.7665 238.697 24.4931 239.643 24.1367C239.933 24.0342 240.17 23.9772 240.364 23.9577H240.466C240.788 23.9577 240.956 24.1562 240.956 24.5436V33.851H241.058C241.635 33.2739 242.328 32.8231 243.093 32.5278C243.999 32.1596 244.982 32.0113 245.958 32.0954C246.935 32.1795 247.877 32.4935 248.705 33.0112C249.711 33.6366 250.523 34.5256 251.048 35.5793C251.628 36.686 251.923 37.9326 251.923 39.3176C251.923 40.6911 251.588 41.9557 250.918 43.1063C250.262 44.2455 249.387 45.1406 248.293 45.8013C247.234 46.4507 246.013 46.7946 244.767 46.7941C242.912 46.7941 241.303 46.2847 239.952 45.2675H239.798C239.707 45.44 239.616 45.6679 239.514 45.9543C239.437 46.1901 239.324 46.4128 239.18 46.6151C239.126 46.6869 239.057 46.7452 238.976 46.7851C238.896 46.825 238.807 46.8454 238.717 46.8445ZM244.484 45.7265C245.752 45.7265 246.774 45.1601 247.547 44.0225C248.333 42.8898 248.731 41.3649 248.731 39.4445C248.731 37.8366 248.352 36.463 247.598 35.3254C246.858 34.1944 245.752 33.6215 244.278 33.6215C242.951 33.6215 241.844 34.0935 240.956 35.0211V43.1828C241.022 43.5083 241.2 43.8696 241.496 44.2764C241.806 44.6703 242.205 45.0088 242.706 45.2936C243.221 45.5865 243.813 45.7265 244.484 45.7265ZM258.441 46.7941C257.187 46.7941 256.176 46.4442 255.404 45.7525C255.03 45.4194 254.733 45.0106 254.534 44.554C254.334 44.0974 254.236 43.6036 254.246 43.1063C254.246 41.8222 254.683 40.8555 255.558 40.2078C256.434 39.547 257.469 39.1272 258.674 38.9367C259.89 38.7333 261.455 38.5803 263.36 38.4778V36.0366C263.36 35.039 263.103 34.2757 262.587 33.7484C262.084 33.2277 261.274 32.9607 260.142 32.9607C259.504 32.9607 258.944 33.1577 258.468 33.5466C257.985 33.9388 257.748 34.4613 257.748 35.122C257.748 35.4475 257.823 35.7193 257.978 35.9357C258.133 36.1587 258.295 36.3426 258.468 36.4956C258.654 36.6355 258.751 36.712 258.751 36.7234C258.751 36.8455 258.622 37.0033 258.365 37.2068C258.087 37.4012 257.752 37.4996 257.411 37.4867C256.775 37.4867 256.279 37.2702 255.919 36.8259C255.558 36.3684 255.367 35.8026 255.378 35.2229C255.378 34.1553 255.856 33.3676 256.82 32.8582C257.799 32.3374 258.97 32.0705 260.346 32.0705C262.046 32.0705 263.424 32.396 264.492 33.0372C265.574 33.6654 266.115 34.8437 266.115 36.5721V43.767C266.126 44.1934 266.268 44.6003 266.526 44.9876C266.783 45.3831 267.182 45.5735 267.736 45.5735C267.904 45.5735 268.026 45.6109 268.097 45.6744C268.161 45.7444 268.199 45.8778 268.199 46.0813C268.199 46.3238 268.006 46.4946 267.634 46.6151C267.253 46.729 266.874 46.7941 266.5 46.7941C265.709 46.7941 265.007 46.5662 264.389 46.1073C264.097 45.8913 263.853 45.6164 263.676 45.3009C263.498 44.9853 263.391 44.6361 263.36 44.2764C262.928 45.0901 262.259 45.72 261.351 46.1577C260.437 46.5776 259.473 46.7941 258.441 46.7941ZM259.446 45.1162C260.148 45.1162 260.797 44.9502 261.402 44.6068C262.002 44.2504 262.471 43.767 262.819 43.1584C263.178 42.5464 263.36 41.8792 263.36 41.1485V39.368C261.178 39.5405 259.639 39.8969 258.751 40.4373C257.856 40.9646 257.411 41.8287 257.411 43.0298C257.411 44.4229 258.087 45.1162 259.446 45.1162ZM275.574 46.9471C274.557 46.9471 273.682 46.5728 272.948 45.8274C272.227 45.0836 271.867 44.0209 271.867 42.649V33.571L270.038 33.6475C269.916 33.6475 269.814 33.5906 269.73 33.4685C269.644 33.3599 269.598 33.2254 269.601 33.0877C269.601 32.9038 269.634 32.7459 269.703 32.6043C269.737 32.5431 269.786 32.4907 269.844 32.4511C269.902 32.4116 269.969 32.386 270.039 32.3765C270.773 32.2414 271.339 32.0136 271.736 31.6897C272.148 31.3707 272.445 31.0225 272.639 30.6465C272.826 30.2592 273.058 29.6733 273.335 28.8921C273.437 28.6252 273.656 28.4853 274.004 28.4853C274.159 28.4853 274.3 28.5292 274.44 28.6122C274.595 28.6822 274.673 28.7831 274.673 28.9165L274.442 32.4514L278.097 32.2235H278.174C278.431 32.2235 278.56 32.4188 278.56 32.8094C278.56 33.0307 278.522 33.2407 278.457 33.4441C278.387 33.6345 278.303 33.724 278.2 33.724L274.699 33.6475V43.0298C274.699 43.7101 274.834 44.2764 275.111 44.7337C275.401 45.1797 275.864 45.3945 276.5 45.3945C277.151 45.3945 277.724 45.2871 278.225 45.0641C278.495 44.9632 278.67 44.9128 278.741 44.9128C278.876 44.9128 278.985 44.9762 279.075 45.0901C279.158 45.191 279.243 45.3375 279.332 45.523C279.349 45.5717 279.358 45.6229 279.359 45.6744C279.359 45.7639 279.293 45.8534 279.177 45.9543C278.648 46.304 278.066 46.5702 277.454 46.7436C276.838 46.8875 276.207 46.9559 275.574 46.9471Z" fill="white"/>
<mask id="mask21_201_111" style="mask-type:luminance" maskUnits="userSpaceOnUse" x="284" y="12" width="20" height="48">
<path d="M284.613 12.8031H303.105V59.0276H284.613V12.8031Z" fill="white"/>
</mask>
</g>
<defs>
<clipPath id="clip0_201_111">
<rect width="303" height="74" fill="white"/>
</clipPath>
</defs>
</svg>
