<svg id="visual" viewBox="0 0 960 540" width="960" height="540" xmlns="http://www.w3.org/2000/svg" xmlns:xlink="http://www.w3.org/1999/xlink" version="1.1"><path d="M0 104L26.7 111.2C53.3 118.3 106.7 132.7 160 137.2C213.3 141.7 266.7 136.3 320 136.3C373.3 136.3 426.7 141.7 480 152.3C533.3 163 586.7 179 640 206.8C693.3 234.7 746.7 274.3 800 265.3C853.3 256.3 906.7 198.7 933.3 169.8L960 141L960 0L933.3 0C906.7 0 853.3 0 800 0C746.7 0 693.3 0 640 0C586.7 0 533.3 0 480 0C426.7 0 373.3 0 320 0C266.7 0 213.3 0 160 0C106.7 0 53.3 0 26.7 0L0 0Z" fill="#ff06ad"></path><path d="M0 212L26.7 229C53.3 246 106.7 280 160 289C213.3 298 266.7 282 320 274C373.3 266 426.7 266 480 283C533.3 300 586.7 334 640 351C693.3 368 746.7 368 800 353.7C853.3 339.3 906.7 310.7 933.3 296.3L960 282L960 139L933.3 167.8C906.7 196.7 853.3 254.3 800 263.3C746.7 272.3 693.3 232.7 640 204.8C586.7 177 533.3 161 480 150.3C426.7 139.7 373.3 134.3 320 134.3C266.7 134.3 213.3 139.7 160 135.2C106.7 130.7 53.3 116.3 26.7 109.2L0 102Z" fill="#ff3e6e"></path><path d="M0 509L26.7 496.3C53.3 483.7 106.7 458.3 160 452C213.3 445.7 266.7 458.3 320 462C373.3 465.7 426.7 460.3 480 457.7C533.3 455 586.7 455 640 455C693.3 455 746.7 455 800 464C853.3 473 906.7 491 933.3 500L960 509L960 280L933.3 294.3C906.7 308.7 853.3 337.3 800 351.7C746.7 366 693.3 366 640 349C586.7 332 533.3 298 480 281C426.7 264 373.3 264 320 272C266.7 280 213.3 296 160 287C106.7 278 53.3 244 26.7 227L0 210Z" fill="#ff7341"></path><path d="M0 541L26.7 541C53.3 541 106.7 541 160 541C213.3 541 266.7 541 320 541C373.3 541 426.7 541 480 541C533.3 541 586.7 541 640 541C693.3 541 746.7 541 800 541C853.3 541 906.7 541 933.3 541L960 541L960 507L933.3 498C906.7 489 853.3 471 800 462C746.7 453 693.3 453 640 453C586.7 453 533.3 453 480 455.7C426.7 458.3 373.3 463.7 320 460C266.7 456.3 213.3 443.7 160 450C106.7 456.3 53.3 481.7 26.7 494.3L0 507Z" fill="#ffad06"></path></svg>